<svg width="60" height="60" viewBox="0 0 60 60" fill="none" xmlns="http://www.w3.org/2000/svg">
    <path d="M13.155 26.087c-.008-.009-.016-.025-.024-.033-.075-.115-.14-.23-.214-.345-.074-.115-.148-.239-.23-.345-.066-.107-.148-.206-.214-.313a6.692 6.692 0 0 0-.559-.632c-.97-.986-2.382-1.29-3.738-1.085C1.512 24.378.806 36.528.789 41.474c0 .739.025 1.498.304 2.187.271.688.846 1.297 1.578 1.423.73.123 1.569-.387 1.627-1.124l.131-.866a.775.775 0 0 1 .805-.659l1.216.055c2.679.121 5.366-.062 8.012-.544a1.93 1.93 0 0 0 1.594-1.942 81.593 81.593 0 0 0-.107-3.118 29.506 29.506 0 0 0-2.794-10.8zM19.072 29.767c2.931-.304 5.772-1.136 8.545-2.26.797-.323 1.736-.63 2.3-1.319.341-.413.466-.918.358-1.354-.1-.408-.399-.754-.93-.891-.723-.191-2.151.21-2.816.355-5.497 1.203-4.334 2.05-12.058.512a.596.596 0 0 0-.647.856c.706 1.372 1.353 2.762 2.076 4.125.249.474 1.196.208 1.644.162.507-.055 1.013-.13 1.528-.186z" fill="#fff"/>
    <path d="M18.817 23.695c.355-.023.711-.048 1.067-.074a.192.192 0 0 0 .17-.172c.16-4.024.262-15.622.38-21.001 9.824.127 21.52.211 34.105.211.008 8.515.05 21.827.11 29.186-4.836.232-9.316.486-13.373.74-4.022.248-16.726-.007-19.334-.007a.412.412 0 0 0-.415.435c.017.37.025.864.034 1.227a.42.42 0 0 0 .415.407h1.058c3.218-.006 13.144-.083 17.675-.141 4.53-.058 9.654-.157 15.202-.312a1.192 1.192 0 0 0 1.16-1.18v-.023c.076-8.039.127-22.21.127-31.661 0-.729-.593-1.33-1.33-1.33h-.584c-13.33 0-25.695.085-35.925.237h-.034a1.083 1.083 0 0 0-1.067 1.084c.05 5.914.237 17.926.364 22.2 0 .102.093.182.195.174z" fill="#fff"/>
    <path d="M32.937 23.425c-.1.49.48.832.857.498l3.94-3.512a.516.516 0 0 1 .605-.06l4.56 2.661c.43.254.933-.196.732-.655l-1.84-4.2a.264.264 0 0 0-.344-.135l-1.428.606c-.168.07-.303-.138-.177-.259l5.737-4.557a.518.518 0 0 0-.394-.905l-5.225.437a.533.533 0 0 1-.53-.311L37.28 7.9c-.193-.462-.865-.394-.974.093l-.958 5.544a.508.508 0 0 1-.453.405l-5.208.423a.519.519 0 0 0-.219.962l4.351 2.383a.515.515 0 0 1 .244.558l-1.126 5.157zM18.777 42.571a4.811 4.811 0 0 0 4.81 4.81 4.811 4.811 0 0 0 0-9.622 4.812 4.812 0 0 0-4.81 4.812zM33.457 40.613a4.812 4.812 0 1 0 9.624-.001 4.812 4.812 0 0 0-9.624.001zM53.035 37.388a4.808 4.808 0 0 0-4.804 4.81 4.808 4.808 0 1 0 9.616 0 4.81 4.81 0 0 0-4.812-4.81zM27.923 51.495c-1.453-1.662-3.754-2.313-5.88-1.735a5.8 5.8 0 0 0-3.14 2.127c-1.278 1.706-1.968 3.845-1.885 5.974.017.367.067.766.324 1.024.225.216.549.284.856.34 2.981.55 6.254 1.171 9.26.446 3.057-.737 2.89-2.903 1.985-5.57a7.901 7.901 0 0 0-1.52-2.606zM58.734 53.517c-.416-1.029-1.01-1.969-1.552-2.59-1.723-1.965-4.556-2.4-6.881-1.298-2.545 1.206-4.183 4.278-4.132 7.055.017.744.22 1.621.933 1.914 1.952.81 4.166 1.01 6.253.937 1.544-.053 3.318-.074 4.667-.945 1.662-1.075 1.467-3.216.712-5.073zM42.703 49.006c-1.746-2.436-5.211-3.166-7.595-1.214-2.013 1.647-2.953 4.491-3.247 6.99-.025.256-.05.522.025.769.37 1.239 3.197 1.914 4.288 2.049 1.678.208 3.39.466 5.001-.05 1.158-.376 2.954-.907 3.256-2.282.084-.375.025-.764-.042-1.143-.277-1.614-.73-3.788-1.687-5.12zM1.936 20.449a6.352 6.352 0 0 0 2.468-.689.698.698 0 0 1 .885.238 4.082 4.082 0 0 0 3.82 1.77c1.886-.196 3.419-1.72 3.624-3.598a4.089 4.089 0 0 0-4.058-4.566c-.18 0-.353.016-.525.033-.402.057-.787-.189-.967-.558a2.533 2.533 0 0 0-2.255-1.385c-1.508 0-2.59 1.36-2.508 2.828.115 2.033.197 3.812-.607 5.755-.033.082.033.18.123.172z" fill="#fff"/>
</svg>
