<svg width="38" height="35" viewBox="0 0 38 35" fill="none" xmlns="http://www.w3.org/2000/svg">
    <path d="M23.73 18.365a.49.49 0 0 0-.35.641c2.318 6.534-2.745 13.96-9.711 14.14-14.222.383-15.065-20.722-.882-21.499 2.278-.079 4.411.554 6.182 1.696.56.317 1.008-.396 1.455-.638a.552.552 0 0 0-.013-.896C12.418 5.972.131 12.283.343 22.285 1 41.961 30.617 37.332 25.376 18.456c-.277-.674-1.126-.13-1.646-.091z" fill="#fff"/>
    <path d="M15.236 17.335a.548.548 0 0 0 .652-.19c.294-.466 1.168-1.174.392-1.616a7.522 7.522 0 0 0-3.21-.673c-4.012.055-7.314 3.295-7.438 7.304-.267 9.808 14.582 10.347 15.071.576-.013-.756-.013-3.439-1.07-3.195-.457.24-1.507.278-1.318 1.008C20.814 29.026 7.46 30.776 7.72 21.907c.222-3.576 4.273-6.01 7.516-4.572z" fill="#fff"/>
    <path d="M37.326 10.762c-1.578-.434-8.286-1.456-8.166-2.45.02-2.625.139-5.367.517-7.948.06-.396-.464-.47-.663-.217-2.572 3.585-6.072 5.949-4.72 10.822.08.188-.08.413-.252.59L12.8 21.904a.459.459 0 0 0 .583.707l12.727-9.125c.246-.125.577-.27.756-.138 1.293.578 2.817.745 4.203.379 2.187-.596 4.268-1.533 6.41-2.276.377-.14.152-.637-.153-.688z" fill="#fff"/>
</svg>
