
<svg width="34" height="34" viewBox="0 0 34 34" fill="none" xmlns="http://www.w3.org/2000/svg">
    <path fill-rule="evenodd" clip-rule="evenodd" d="M17 0.375C7.81827 0.375 0.375 7.81827 0.375 17C0.375 26.1817 7.81827 33.625 17 33.625C26.1817 33.625 33.625 26.1817 33.625 17C33.625 12.5908 31.8734 8.36214 28.7556 5.24435C25.6379 2.12656 21.4092 0.375 17 0.375ZM26.5 18.1875H12.0719L18.6981 24.8052L17 26.5L7.5 17L17 7.5L18.6981 9.15371L12.0719 15.8125H26.5V18.1875Z" fill="white"/>
    <path opacity="0.01" fill-rule="evenodd" clip-rule="evenodd" d="M17 7.5L18.6981 9.15419L12.0719 15.8125H26.5V18.1875H12.0719L18.6981 24.8054L17 26.5L7.5 17L17 7.5Z" fill="black"/>
    </svg>
    