<svg width="18" height="19" viewBox="0 0 18 19" fill="none" xmlns="http://www.w3.org/2000/svg">
<path fill-rule="evenodd" clip-rule="evenodd" d="M16.9419 12.0581L15.25 10.3662V8.125C15.2458 4.91693 12.8166 2.23148 9.625 1.90675V0.625H8.375V1.90675C5.1834 2.23148 2.75416 4.91693 2.75 8.125V10.3662L1.05806 12.0581C0.940867 12.1753 0.875019 12.3343 0.875 12.5V14.375C0.875 14.7202 1.15482 15 1.5 15H5.875V15.4855C5.84695 17.1272 7.05869 18.5271 8.6875 18.7347C9.56606 18.8219 10.4406 18.5338 11.0953 17.9415C11.75 17.3492 12.124 16.5079 12.125 15.625V15H16.5C16.8452 15 17.125 14.7202 17.125 14.375V12.5C17.125 12.3343 17.0591 12.1753 16.9419 12.0581ZM10.875 15.625C10.875 16.6605 10.0355 17.5 9 17.5C7.96447 17.5 7.125 16.6605 7.125 15.625V15H10.875V15.625ZM15.875 13.75H2.125V12.7588L3.81687 11.0669C3.93409 10.9497 3.99996 10.7907 4 10.625V8.125C4 5.36358 6.23858 3.125 9 3.125C11.7614 3.125 14 5.36358 14 8.125V10.625C14 10.7907 14.0659 10.9497 14.1831 11.0669L15.875 12.7588V13.75Z" fill="white"/>
</svg>
