<svg width="18" height="18" viewBox="0 0 18 18" fill="none" xmlns="http://www.w3.org/2000/svg">
<path fill-rule="evenodd" clip-rule="evenodd" d="M9 10.875C7.53365 10.8762 6.16446 10.1418 5.35437 8.91956L6.39562 8.22744C6.97471 9.10027 7.95253 9.62499 9 9.62499C10.0475 9.62499 11.0253 9.10027 11.6044 8.22744L12.6456 8.91956C11.8355 10.1418 10.4663 10.8762 9 10.875ZM11.5 4C10.8096 4 10.25 4.55964 10.25 5.25C10.25 5.94036 10.8096 6.5 11.5 6.5C12.1904 6.5 12.75 5.94036 12.75 5.25C12.7533 4.91749 12.6226 4.59764 12.3875 4.36251C12.1524 4.12737 11.8325 3.99673 11.5 4ZM6.5 4C5.80964 4 5.25 4.55964 5.25 5.25C5.25 5.94036 5.80964 6.5 6.5 6.5C7.19036 6.5 7.75 5.94036 7.75 5.25C7.75327 4.91749 7.62263 4.59764 7.38749 4.36251C7.15236 4.12737 6.83251 3.99673 6.5 4ZM10.0849 17.75L9 17.125L11.5 12.75H15.25C15.5817 12.7506 15.9 12.6191 16.1345 12.3845C16.3691 12.15 16.5006 11.8317 16.5 11.5V2.75C16.5006 2.41831 16.3691 2.10004 16.1345 1.86549C15.9 1.63095 15.5817 1.49943 15.25 1.5H2.75C2.41831 1.49943 2.10004 1.63095 1.86549 1.86549C1.63095 2.10004 1.49943 2.41831 1.5 2.75V11.5C1.49943 11.8317 1.63095 12.15 1.86549 12.3845C2.10004 12.6191 2.41831 12.7506 2.75 12.75H8.375V14H2.75C2.08692 14.0001 1.45097 13.7368 0.982105 13.2679C0.513239 12.799 0.249884 12.1631 0.25 11.5V2.75C0.249801 2.0869 0.513129 1.4509 0.982013 0.982013C1.4509 0.513129 2.0869 0.249801 2.75 0.25H15.25C15.9131 0.249801 16.5491 0.513129 17.018 0.982013C17.4869 1.4509 17.7502 2.0869 17.75 2.75V11.5C17.7501 12.1631 17.4868 12.799 17.0179 13.2679C16.549 13.7368 15.9131 14.0001 15.25 14H12.2279L10.0849 17.75Z" fill="white"/>
</svg>
