<svg width="35" height="36" viewBox="0 0 35 36" fill="none" xmlns="http://www.w3.org/2000/svg">
    <path d="M8.744 27.676c-.725-.313-1.56-.512-2.364-.636-.218-.03-.435-.062-.653-.084-1.124-.132-2.383-.07-3.203.65 0 0-.687.604-.94 2.15 0 0-.229 2.601-.115 3.789 0 0-.046.958 1.124 1.506 0 0 1.994 1.148 5.503.415 0 0 1.283-.19 1.925-.848 0 0 .321-.358.321-.715l.183-3.64a3.682 3.682 0 0 0-.294-1.355c-.243-.548-.875-.967-1.487-1.232zM21.444 24.573s-1.995-1.15-5.502-.413c0 0-1.284.186-1.927.848 0 0-.32.359-.32.714-.134 2.657-.642 5.453-.386 8.11 0 0-.046.963 1.124 1.509 0 0 1.994 1.15 5.502.413 0 0 1.285-.187 1.925-.848 0 0 .322-.36.322-.714.135-2.662.642-5.453.386-8.11 0 0 .046-.963-1.124-1.51zM34.717 19.44a3.809 3.809 0 0 0-.648-1.193c-1.272-1.569-3.282-2.232-5.36-1.798 0 0-1.285.189-1.927.848 0 0-.32.358-.32.717-.22 4.37-.295 8.74-.694 13.102 0 0-.252 2.281-.366 2.8 0 0-.299.884.618 1.3 0 0 .918.65 3.898.377 0 0 2.222-.166 3.437-1.067.98-.721.87-1.869 1.002-2.935.316-2.56.549-5.128.568-7.701.009-1.412.259-3.048-.208-4.45zM3.342 23.194c8.678.495 17.365-3.34 22.212-10.042 1.072-1.48 2.355-3.294 4.296-3.207.8.032 1.533.412 2.315.568.785.16 1.775 0 2.086-.678.151-.325.104-.696.055-1.049l-.95-6.753C33.223 1.08 32.878-.11 31.58.008a1.833 1.833 0 0 0-.815.289l-9.181 5.846c-.68.435-.55 1.379.22 1.653.53.193 1.074.349 1.625.472.112.019 1.227.202 2.444.54.36.102.348.574-.02.656-.38.082-.804.183-1.213.298a3.645 3.645 0 0 0-1.489.829c-4.982 4.632-10.716 7.014-18.87 5.978-1.35-.17-2.609.646-2.863 1.87l-.415 2.002c-.284 1.374.812 2.666 2.34 2.753z" fill="#fff"/>
</svg>
