<svg width="125" height="26" viewBox="0 0 125 26" fill="none" xmlns="http://www.w3.org/2000/svg">
    <path d="M52.755.242c2.098.087 4.22.007 6.291.293 5.25.724 9.496 5.39 10.13 10.615.861 7.097-4.555 13.904-12.423 13.9-3.071 0-6.142-.01-9.213.008-.54.003-.77-.133-.765-.729.026-2.853.023-5.706.002-8.56-.005-.53.155-.73.696-.724 1.885.022 3.772-.017 5.657.034.347.01.742.274 1.015.528 1.188 1.106 2.545 1.586 4.127 1.117 1.57-.464 2.545-1.552 2.879-3.152.375-1.798-.51-3.573-2.147-4.438-1.546-.817-3.575-.505-4.797.82-.392.424-.78.557-1.32.552-1.79-.024-3.58-.028-5.367.001-.572.009-.75-.18-.745-.749.023-2.901.025-5.802-.001-8.705-.006-.583.197-.749.753-.74 1.74.026 3.482.009 5.223.009l.005-.08zM42.587 10.45c-.32.02-.556.05-.79.05-2.37.003-4.74.019-7.11-.018-.33-.005-.738-.2-.972-.44-1.23-1.268-3.199-1.737-4.728-1.067-1.529.669-2.662 2.512-2.51 4.078.185 1.885 1.46 3.438 3.285 3.782 1.516.286 2.853-.196 3.956-1.316.226-.23.598-.442.906-.446 2.418-.036 4.835-.022 7.253-.017.186 0 .373.045.67.082-.133.513-.224.979-.37 1.426-1.587 4.847-6.194 8.388-11.118 8.46-3.31.047-6.622-.034-9.934-.018-.748.004-.733-.408-.733-.929.006-7.399.003-14.798.003-22.197 0-.242.021-.486-.003-.725-.064-.611.213-.79.8-.787 2.975.02 5.951.084 8.922-.02 2.018-.071 3.903.293 5.684 1.17 3.4 1.674 5.592 4.375 6.613 8.024.077.274.11.557.176.909zM91.107 7.317c-1.894-.381-3.646-.914-5.427-1.053-2.985-.235-5.41.855-6.497 3.659-1.137 2.934-.22 6.462 2.094 8.134 1.521 1.1 3.258 1.251 5.058 1.1.451-.037.521-.317.52-.704-.01-1.644.011-3.288-.014-4.933-.007-.525.146-.725.699-.717 1.79.03 3.579.026 5.368.002.524-.007.65.194.647.68-.016 3.266.003 6.53-.027 9.796-.003.262-.222.68-.44.762-4.763 1.776-9.593 2.104-14.364.17-3.962-1.607-6.126-4.771-6.785-8.93-.56-3.536-.215-6.97 1.842-10.03C76.104 1.796 79.502.25 83.567.033c2.735-.147 5.4.209 7.97 1.213.53.208.741.428.593 1.058-.402 1.708-.71 3.443-1.023 5.014zM108.62 12.672c0-3.82.016-7.64-.014-11.46-.006-.697.19-.9.892-.896 4.762.03 9.525.028 14.287.002.663-.004.881.184.859.853a75.613 75.613 0 0 0-.003 4.206c.015.594-.171.8-.78.794-2.563-.027-5.125.006-7.688-.023-.63-.007-.93.126-.869.832.062.72.049 1.45.002 2.174-.037.595.156.794.767.786 2.466-.03 4.931.012 7.397-.027.713-.012.991.16.958.92-.059 1.326-.038 2.659-.009 3.988.013.576-.21.753-.766.749-2.466-.02-4.932-.01-7.397-.007-.938.001-.938.004-.939.966-.002.654.037 1.308-.011 1.958-.046.627.217.774.796.77 2.611-.024 5.222-.01 7.833-.01 1.055 0 1.056.002 1.058 1.02.001 1.354-.018 2.708.008 4.06.012.562-.181.754-.753.75-4.956-.017-9.913-.018-14.867.002-.619.003-.774-.222-.771-.802.02-3.87.01-7.738.01-11.605zM.018 12.7C.018 8.88.038 5.06 0 1.238-.007.492.218.31.94.315c4.74.031 9.48.03 14.22.001.71-.004.907.216.882.904-.05 1.4-.04 2.806-.005 4.208.015.583-.2.744-.757.74-2.588-.022-5.176.01-7.762-.023-.649-.01-.853.204-.817.831.044.748.033 1.5.001 2.248-.021.533.172.717.71.711 2.466-.021 4.933.018 7.4-.024.73-.013.973.19.94.933a44.096 44.096 0 0 0-.002 3.843c.03.724-.24.896-.916.887-2.418-.035-4.836.004-7.253-.025-.64-.007-.934.16-.883.852a16.4 16.4 0 0 1 .003 2.103c-.03.58.203.752.76.748 2.66-.02 5.321.011 7.98-.022.684-.009.935.168.907.887-.054 1.4-.038 2.805-.006 4.207.013.562-.156.756-.734.753a1950.39 1950.39 0 0 0-14.872 0c-.594.003-.731-.228-.73-.769.02-3.87.013-7.738.012-11.608zM104.429 12.715c0 3.819-.023 7.637.021 11.456.008.775-.257.93-.954.911a91.845 91.845 0 0 0-4.856 0c-.678.017-.919-.163-.917-.882.023-7.685.021-15.37.003-23.056-.002-.626.162-.844.812-.828 1.691.044 3.385.05 5.074-.002.701-.022.835.24.83.872-.024 3.844-.013 7.686-.013 11.53z" fill="#fff"/>
    <path d="M58.738 12.814c-.014.788-.46 1.402-1.192 1.636-.721.232-1.518.029-1.929-.617-.28-.443-.608-.529-1.077-.527-7.182.01-14.365.01-21.548.001-.468 0-.785.105-1.08.527-.603.858-1.806.944-2.557.261-.78-.71-.786-1.944-.014-2.638.76-.68 1.966-.608 2.56.24.299.426.624.518 1.088.516 7.183-.009 14.366-.009 21.548 0 .468 0 .796-.084 1.086-.518.438-.658 1.273-.848 2.007-.58.704.256 1.12.895 1.108 1.699z" fill="#fff"/>
</svg>
