<svg width="45" height="50" viewBox="0 0 45 50" fill="none" xmlns="http://www.w3.org/2000/svg">
    <path fill-rule="evenodd" clip-rule="evenodd" d="M18.63 47.24a1.775 1.775 0 0 0 1.541-.944 9.504 9.504 0 0 1-.53-2.457c-.15-2.445.792-4.764 1.823-4.826.75-.048 1.369.668 1.444 1.831.186 3.063-.845 4.337-1.355 5.445a1.807 1.807 0 0 0 1.507 1.15.96.96 0 0 0 .625-.227 2.547 2.547 0 0 1-.103-.73c0-1.784 1.142-3.27 2.125-3.27.784 0 1.238 1.032 1.238 1.713 0 .806-.68 1.48-1.698 2.114.221.187.5.292.79.296 1.438 0 2.208-1.756 2.765-3.34.097-.302.275-.736.626-.736.605 0 .86 4.007 1.864 4.007.433 0 .784-.889.784-1.584 0-.502-.179-.558-.179-1.287 0-.806.433-1.487 1.012-1.487.365 0 .495.351.495.785 0 1.61-1.176 4.626-2.889 4.626-1.286 0-1.19-2.238-1.637-2.238-.508 0-1.224 2.265-3.727 2.265a1.587 1.587 0 0 1-1.183-.605c-.493.368-1.09.57-1.706.578-.935 0-1.334-.957-1.712-.957-.454 0-.963.983-2.477.983-1.216 0-1.422-1.61-1.849-1.61-.378 0-.963 1.61-1.59 1.61-1.057 0-1.286-2.816-2.22-2.816-.742 0-3.053 2.864-3.678 2.795-.255-.028-.358-.213-.33-.468.034-.351.337-1.28.452-1.742.207-.764.393-1.604.496-1.872a.67.67 0 0 1 .612-.448c.11.014.145.22.178.4.132.626.31 1.26.51 1.26.35 0 1.534-2.245 2.214-2.245.833 0 .936 3.545 2.07 3.545.378 0 .654-.454.908-1.025.028-.93.275-2.265 1.032-2.265.543 0 .797 1.184.42 2.216 0 1.253.804 1.556 1.333 1.556v.004zm20.227-3.047c.057-.227.255-.709.66-.709.454 0 .248 2.871.881 2.871.378 0 .886-3.573 3.267-3.573.804 0 1.334.448 1.334 1.033a.734.734 0 0 1-.729.759c-.922 0-.68-.682-1.073-.682-1.011 0-1.74 1.941-2.496 3.648-.303.682-.482.806-.73.806-.632 0-.784-1.742-1.039-2.513-.523 1.15-1.554 2.513-3.212 2.513-.962 0-1.918-.503-1.918-2.045 0-1.728 1.114-2.967 2.242-2.967.86 0 1.437.888 1.437 1.515 0 1.707-2.216 1.755-2.216 2.107 0 .33.58.454.908.454 1.411 0 2.374-1.92 2.683-3.215l.001-.002zm-16.78-2.655c-.049-.723-.214-1.04-.59-1.011-.503.028-.737 1.624-.634 3.283.062 1.088.227 1.253.378 1.246.276-.02.943-1.955.846-3.517v-.001zm-4.1-1.493c.05.578-.35 1.218-.92 1.218a.744.744 0 0 1-.756-.77c-.048-.627.399-1.13.88-1.13a.742.742 0 0 1 .796.682zm7.855 5.156c0-.427-.227-.778-.502-.778-.227 0-.758.248-.758 1.06-.023.387.095.768.33 1.074a1.32 1.32 0 0 0 .928-1.356h.002zm9.889-.854c-.963 0-.887 1.563-.73 1.955a1.639 1.639 0 0 0 1.279-.95c.132-.378-.02-1.005-.55-1.005zm-29.118-1.79a8.136 8.136 0 0 1-.338-1.129c-.13-.853.31-1.411.73-1.535.453-.13.632.096.81.627.228.826.248 1.886.173 3.394-.097 2.072-1.135 4.584-3.72 4.536-2.215-.056-3.212-1.494-3.316-3.703-.058-1.194.095-2.39.453-3.53.241-.792.447-1.074 1.149-1.226.557-.096.502.482.378 1.178-.275 1.514-.406 2.244-.303 3.958.103 1.831.936 2.54 1.842 2.54 1.363.029 1.967-1.108 2.216-2.76.219-1.315.056-1.949-.076-2.348M19.234 1.148l.117.014.09.02.067.042.05.069.027.11.014.145-.007.158-.02.138-.034.13-.042.097-.069.056-.096.028-.124-.013-.151-.042-.158-.062-.165-.082-.151-.09-.145-.097-.13-.103-.104-.096-.061-.083-.02-.076.02-.041.068-.048.097-.049.138-.041.15-.035.159-.028.172-.013.172-.007h.137M10.684 0l.2.015.16.04.124.063.1.075.09.082.082.097.076.096.083.083.088.082.112.07.124.04.165.014.158-.014.13-.04.118-.057.09-.083.082-.082.082-.097.083-.09.095-.082.104-.069.137-.056.153-.038.2-.014.226.007.2.007.177.021.139.028.11.028.062.028.007.021-.014.041-.056.042-.083.041-.103.048-.103.049-.11.068-.09.076-.068.104-.02.13.027.118.083.117.117.11.137.104.157.103.16.096.158.097.138.09.116.089.07.083.026.082-.02.056-.048.028-.068.014-.153-.026-.187-.048-.198-.049-.22-.048-.193-.02-.13.013-.103.041-.09.07-.057.103-.02.131.02.18.062.185.076.193.09.193.075.186.06.165.022.13-.022.07-.047.048-.061.02-.083-.02-.083-.062-.089-.096-.096-.124-.097-.138-.103-.138-.104-.137-.105-.125-.117-.096-.124-.076-.13-.02-.125.02-.103.069-.083.096-.061.124-.048.138-.042.151-.034.159-.034.158-.035.152-.034.137-.041.117-.048.09-.062.056-.069.021-.056-.02-.041-.05-.036-.095-.02-.11-.006-.145-.007-.152-.006-.165-.014-.158-.02-.159-.035-.145-.048-.124-.083-.096-.11-.069-.144-.02-.151.02-.145.061-.144.104-.138.103-.138.117-.123.104-.117.096-.104.056-.089.021-.062-.007-.034-.034-.02-.048.028-.097.06-.11.09-.138.118-.144.117-.152.117-.151.103-.152.061-.137.028-.124-.02-.097-.062-.069-.085-.042-.103-.021-.11-.007-.212.014-.235.034-.232.035-.227.034-.193.014-.082-.007-.076-.028-.041-.034-.02-.042.02-.056.075-.062.103-.056.138-.056.158-.062.165-.062.172-.063.158-.075.145-.083.11-.09.082-.103.029-.117-.02-.138-.07-.103-.082-.076-.105-.057L9.92.324 9.823.29 9.742.262 9.686.233 9.672.2l.023-.034.076-.042.123-.041.166-.033.186-.028.213-.014.225-.007M6.754 3.443l.102.014.09.028.062.041.014.041L7 3.65l-.06.103-.103.131-.131.138-.151.145-.165.144-.165.131-.165.11-.151.09-.138.062-.103.02-.056-.02-.05-.041-.026-.062-.014-.083-.006-.096.013-.172.034-.173.062-.165.07-.138.075-.103.124-.076.172-.069.192-.048.193-.035h.302M33.963 3.684l.062.02.076.056.09.083.11.11.123.11.138.118.165.117.179.082.192.062.22.02h.076l.096-.013.103-.028.103-.041.103-.07.09-.089.082-.124.042-.151.02-.193-.028-.179-.069-.158-.124-.138-.144-.13-.173-.118-.199-.103-.206-.09-.206-.083-.213-.076-.207-.062-.192-.062-.172-.048-.145-.048-.116-.049-.063-.034-.013-.028.013-.035.063-.041.11-.049.144-.056.172-.048.193-.056.206-.042.212-.048.207-.035.207-.028.2-.02.212-.007-.26-.31-.255-.227-.248-.192-.261-.145-.255-.124-.234-.09-.227-.075-.2-.057-.18-.041-.15-.035-.11-.04-.061-.029-.014-.034.014-.029.069-.034.116-.048.152-.057.186-.048.22-.041.228-.033.254-.035.262-.028.274-.02h.517l.24.02.22.035.207.048.192.062.158.09.137.096.09.131.069.145.02.165-.02.172-.048.18-.069.192-.069.214-.048.234-.022.254.017.152.04.131.076.117.097.097.144.056.179.02.144-.02.124-.062.088-.09.077-.124.041-.137.035-.159.014-.165.006-.18-.006-.274-.022-.235-.027-.2-.007-.158.02-.22.07-.207.096-.165.145-.138.164-.096.206-.069.22-.02.159.006.13.029.124.028.117.041.138.035.158.028.186.028.165.007-.117.082-.124.145-.104.152-.06.144-.036.131-.013.117.007.166.028.165.041.158.048.173.057.178.056.193.048.22.041.242.028.28.007.324-.02.386-.07.344-.112.317-.153.287-.179.261-.22.234-.255.207-.28.179-.317.158-.337.131-.365.11-.386.09-.398.069-.42.048-.44.028-.447.007-.682-.014-.694-.056-.702-.09-.084-.02-.027-.028-.014-.041.014-.028.048-.035.075-.041.096-.056.118-.056.124-.07.117-.089.117-.103.095-.117.09-.152.049-.172.02-.207-.01-.204-.021-.186-.035-.172-.02-.13-.014-.097.014-.041.026-.029.043-.013h-.002zM38.538.44l-.144.028-.117.076-.076.117-.028.138v.007l.028.13.076.111.117.076.144.028.138-.028.117-.076.075-.11.028-.138-.028-.138-.075-.117-.117-.076-.138-.028zm-.28 1.935v.028l-.029.351-.076.324-.13.309-.165.275-.227.262-.27.234-.309.193-.365.172-.406.131-.448.096.008.042.495.013.434-.013.393-.057.343-.075.303-.097.255-.124.227-.151.186-.152.138-.165.116-.186.076-.172.048-.179.014-.186-.02-.2-.049-.179-.082-.165-.117-.138-.145-.117-.2-.076" fill="#005EEF"/>
    <path fill-rule="evenodd" clip-rule="evenodd" d="m28.854 3.856.075.014.117.034.13.049.125.04.11.035.09.014.055-.048-.013-.083-.041-.09-.057-.103-.061-.103-.057-.09-.041-.082-.014-.042.02-.028.063-.02.103-.028.11-.014.13-.021.124-.02.104-.029.075-.034.041-.057-.04-.056-.076-.041-.097-.041-.117-.049-.132-.041-.115-.041-.097-.042-.061-.034-.021-.028.02-.057.049-.075.056-.097.074-.096.07-.097.048-.082.02-.062-.02-.042-.056-.02-.103.02-.13.049-.145.062-.138.048-.102.028-.04-.02-.049-.064-.048-.09-.048-.11-.056-.116-.042-.11-.048-.097-.04-.069-.049-.041-.056.041-.041.076-.035.096-.034.118-.028.13-.034.118-.042.096-.034.062-.048.02-.206-.013-.207-.028-.178-.014-.062.014-.028.041.02.09.07.069.082.082.096.083.097.076.082.082.056.07.02.047-.02.035-.056.062-.09.083-.192.179-.089.082-.069.07-.02.061.028.056.09.007.563.014.041.014.02.028.015.048.02.53.02.104.07.041.061-.02.062-.07.069-.089.076-.103.068-.104.078-.085.062-.061.048-.021zM26.297.324 26.4.36l.124.056.138.069.144.076.158.082.151.083.145.082.137.07.13.056.104.034.09.014.075-.035.048-.076.028-.096.014-.124.007-.124.007-.103V.338l.01-.145.029-.11.035-.062.033-.02.063.02.068.056.281.281.104.083.102.062.096.021.152-.02.172-.05.199-.068.228-.083.253-.082L30 .15l.296-.047.323-.021.428.02.397.062.378.096.36.13.316.173.302.207.262.24.233.276.186.303.158.344.11.372.076.4.02.433-.02.42-.069.386-.103.365-.144.337-.172.296-.214.276-.233.247-.262.214-.276.179-.301.145-.317.124-.33.082-.337.049-.344.02-.331-.02-.29-.057-.273-.075-.249-.097-.219-.11-.192-.103-.172-.097-.138-.076-.117-.056-.103-.02-.082.027-.076.076-.075.097-.083.117-.076.117-.075.096-.076.063-.048.028-.034-.007-.028-.014-.014-.049-.02-.09-.014-.123-.02-.138-.021-.144-.029-.131-.034-.118-.048-.103-.062-.069-.089-.02h-.007l-.069.02-.089.062-.11.083-.124.103-.124.11-.138.124-.13.11-.13.104-.118.076-.09.056-.075.02h-.034l-.007-.006-.006-.042.02-.09.048-.13.076-.159.089-.172.096-.179.104-.179.088-.172.077-.159.047-.137.02-.11-.02-.083-.068-.056-.09-.035-.11-.028-.124-.014-.124-.013-.117-.014-.103-.02-.082-.029-.056-.028-.015-.041.028-.076.061-.083.102-.09.119-.09.137-.089.138-.096.117-.097.103-.103.075-.11.027-.117-.026-.11-.067-.091-.096-.083-.13-.062-.124-.062-.132-.056-.122-.062-.09-.056-.056-.07-.028-.068.02-.041.076-.063.103-.062.13-.069.131-.068.138-.076.11-.083.083-.076.028-.096-.02-.09-.048-.106-.082-.138-.104-.151-.11-.16-.11-.166-.103-.165-.096-.159-.085-.137-.048-.124-.019-.09.014-.041h.11l.002.001zm4.31.343-.296.014-.268.041-.227.069-.193.083-.165.103-.11.11-.082.117-.022.124.022.104.056.068.076.042.082.013.083.007.116-.014.145-.028.158-.034.158-.049.152-.048.13-.034.11-.029.062-.013.076.007.034.02.014.042-.02.082-.057.104-.062.124-.069.117-.056.117-.02.11.034.07.076.04.103.028.138.021.158.014.163.014.166.007.166.006.158.014.124.02.102.029.063.034.02.042-.028.056-.062.069-.103.062-.117.062-.144.062-.145.062-.144.062-.124.056-.11.048-.07.056-.033.063.028.068.069.097.096.096.117.11.13.124.13.117.118.124.096.117.057.104.028.09-.014.048-.028.028-.056.014-.159-.014-.192-.028-.206-.035-.22-.034-.206-.028-.193-.014-.077.014-.054.041-.013.062.013.124.048.145.054.151.048.159.049.158.014.124-.014.048-.02.028-.041.007-.09-.02-.13-.049-.151-.076-.165-.082-.166-.083-.164-.076-.151-.048-.131-.02-.11.027-.07.083-.027.11.028.103.09.124.13.118.192.123.22.104.269.083.309.056.337.02.151-.007.172-.02.179-.041.179-.057.185-.075.186-.097.179-.124.172-.144.157-.173.152-.2.13-.24.104-.262.076-.296.048-.337.02-.372-.02-.4-.056-.378-.097-.337-.13-.297-.172-.275-.193-.227-.234-.193-.268-.151-.289-.11-.33-.07-.344-.02M17.025 4.59l.089.02.13.057.166.082.178.118.206.123.207.152.22.151.213.166.206.165.193.158.172.145.144.131.11.117.07.083.06.13.015.152-.014.172-.034.172-.048.158-.076.138-.075.117-.097.069-.103.028-.063-.02-.088-.063-.118-.105-.13-.138-.146-.158-.157-.186-.157-.206-.165-.214-.165-.22-.151-.228-.152-.22-.13-.213-.117-.2-.103-.186-.076-.159-.048-.13-.014-.088v-.006l.013-.042.035-.02M36.462 6.096l.164.034.228.02h.2l.254-.02.261-.062.241-.083.241-.082.22-.083.213-.062.193-.02.143.02.104.048.062.083.041.096.014.103-.028.152-.082.144-.113.145-.157.131-.179.11-.2.11-.205.09-.215.069-.205.056-.186.034-.165.014h-.096l-.112-.014-.102-.02-.097-.048-.096-.083-.076-.117-.048-.131-.034-.145-.03-.152-.042-.145-.056-.138-.056-.056M7.547 5.738l.227.02.2.07.171.096.151.13.124.159.097.172.082.186.056.2.042.2.028.186.007.179-.014.289-.048.248-.056.22-.214-.007-.233-.028-.228-.048-.227-.069L7.5 7.86l-.192-.11-.187-.124-.157-.159-.125-.172-.097-.2-.06-.22-.02-.248.02-.2.069-.192.088-.159.139-.145.164-.096.193-.069.213-.028" fill="#005EEF"/>
    <path fill-rule="evenodd" clip-rule="evenodd" d="m6.928.001.185.014.207.014.214.013.227.028.227.028L8.2.14l.213.041.2.048.17.057.146.062.103.062.062.069.028.068-.028.104-.069.103-.124.11-.144.11-.166.104-.178.11-.178.11-.165.11-.146.11-.122.11-.083.11-.028.118.028.103.076.076.116.062.145.049.179.028.185.028.193.02.206.021.192.014.186.028.165.028.145.035.103.048.062.056.028.07-.028.11-.07.123-.096.145-.13.151-.152.159-.164.165-.172.159-.165.158-.152.151-.13.138-.103.124-.076.117-.028.09.028.062.056.034.062.007.124-.02.151-.049.165-.075.186-.09.192-.104.193-.096.192-.09.172-.075.165-.049.13-.02.097.02.048.049.035.082.013.117-.013.207-.049.234-.048.255-.056.255-.048.248-.013.213.005.076.022.069.048.056.083.02.088-.028.084-.075.09-.104.089-.13.11-.152.096-.165.097-.159.11-.151.103-.14.11-.103.104-.062.096-.028.048.02.048.063.034.103.02.131.015.165.013.18.007.185v.193l.007.186.014.18.013.164.029.145.034.103.062.076.082.035.083-.028.069-.076.054-.117.048-.138.048-.158.042-.18.048-.185.041-.186.049-.18.048-.158.048-.138.048-.103.069-.062.056-.028.09.028.082.069.082.103.076.131.075.138.076.144.09.145.082.104.096.082.104.028.089-.02.056-.076.028-.103.014-.145v-.799l.014-.13.026-.11.043-.057.054-.02.096.02.125.069.138.09.158.117.165.144.172.152.165.158.165.152.15.144.144.118.118.096.11.076.076.02.05-.02.02-.048.006-.049-.02-.123-.047-.159-.07-.186-.088-.206-.104-.228-.103-.234-.103-.241-.09-.234-.068-.234-.048-.207-.022-.186.008-.11.035-.103.048-.069.084-.04.103-.014.165.02.206.049.227.076.234.082.241.097.24.082.22.076.2.049.179.02.11-.014.083-.041.054-.069.015-.103-.02-.131-.07-.145-.11-.151-.13-.166-.152-.165-.165-.172-.172-.172-.179-.172-.167-.172-.15-.159-.131-.15-.098-.138-.067-.117-.02-.104.028-.09.07-.082.123-.09.158-.09.2-.082.225-.083.248-.075.274-.07.284-.061.287-.048.295-.048.303-.028.29-.02.275-.007h.09l.102.007.103.014.09.028.048.041.028.062-.028.062-.07.076-.11.069-.144.076-.173.069-.192.075-.199.076-.206.076-.2.076-.185.083-.165.082-.151.09-.103.09-.062.09-.02.089.027.137.075.152.118.158.138.173.17.186.187.186.199.2.207.206.2.2.199.206.186.2.164.2.138.193.104.172.068.172.028.152-.028.117-.069.096-.116.062-.159.028-.2-.014-.212-.04-.248-.063-.262-.075-.267-.083-.269-.096-.268-.09-.255-.083-.24-.076-.214-.062-.192-.041-.151-.014-.097.007-.068.035-.035.062-.007.09.014.144.048.172.07.2.088.227.104.234.11.255.117.255.11.255.103.255.09.24.068.228.048.2.014.179-.007.096-.028.097-.041.062-.062.041-.09.014-.13-.02-.165-.07-.166-.103-.185-.117-.2-.152-.199-.165-.2-.172-.199-.165-.192-.166-.186-.151-.172-.124-.15-.11-.145-.069-.117-.02-.097.02-.075.069-.062.103-.041.124-.035.145-.035.151-.02.159-.027.144-.034.145-.041.124-.041.09-.062.056-.076.02-.096-.027-.096-.062-.104-.104-.104-.13-.103-.124-.104-.124-.102-.104-.117-.076-.124-.028-.075.035-.07.076-.061.124-.056.151-.057.186-.061.207-.057.227-.056.227-.062.241-.063.228-.067.227-.07.206-.068.186-.075.145-.076.117-.083.07-.082.027-.097-.028-.082-.062-.07-.103-.061-.138-.048-.172-.041-.193-.036-.2-.026-.213-.022-.22-.027-.214-.02-.207-.028-.2-.034-.172-.035-.137-.049-.118-.06-.068-.085-.035-.109.02-.117.076-.117.09-.123.117-.131.124-.13.124-.139.117-.137.083-.14.069-.138.02-.11-.02-.084-.041-.06-.076-.042-.097-.02-.123-.007-.145.014-.248.028-.269.034-.268.028-.255.014-.227v-.118l-.014-.117-.034-.096-.062-.076-.096-.02-.13.02-.166.056-.186.083-.22.103-.233.124-.248.138-.254.137-.262.145-.254.138-.255.124-.234.103-.22.083-.192.056-.158.02-.097-.013-.069-.034-.048-.056-.02-.09.02-.124.07-.151.102-.166.123-.192.16-.207.178-.214.192-.22.2-.227.2-.22.199-.22.192-.214.179-.2.158-.193.13-.165.111-.151.069-.131.02-.104-.035-.076-.082-.062-.116-.034-.159-.028-.178-.021-.2-.014-.22-.007H6.92l-.224-.006h-.234l-.22-.007-.2-.014-.178-.014-.145-.028-.118-.038-.07-.042-.02-.048.02-.09.063-.096.103-.11.138-.11.158-.117.172-.118.179-.11.192-.117.18-.11.171-.11.158-.11.138-.097.103-.09.076-.075.02-.076-.035-.076-.075-.069-.117-.056L7.011.82 6.846.77 6.66.724 6.467.675 6.274.634 6.088.578 5.924.53 5.78.474 5.676.428l-.07-.069L5.58.303l.028-.076.069-.075.116-.056.18-.041.214-.034.268-.013L6.77 0h.159M27.506 6.885l.269.014.234.041.192.062.172.076.13.069.11.069.09.069.076.04.056.015.103-.021.097-.041.089-.049.082-.02.057.02.034.056.028.09.007.096v.104l-.007.193-.028.206-.048.22-.069.235-.09.227-.116.206-.13.193-.16.172-.164.118-.099-.16-.145-.173-.193-.165-.24-.145-.075-.041-.041-.062-.014-.076.02-.11.062-.104.095-.11.132-.082-.02-.02-.076-.084-.117-.068-.13-.057-.138-.034-.138-.028-.11-.007-.248.02-.22.07-.192.11-.158.13-.124.145-.097.166-.034.103-.05-.158-.026-.228.014-.179.035-.179.068-.179.09-.165.109-.165.152-.145.172-.11.214-.09.233-.062.275-.02M39.28 5.738l.158.034.172.083.138.103.103.131.069.152.041.172.013.186-.027.241-.075.248-.117.234-.158.241-.2.227-.235.207-.26.186-.275.165-.309.131-.323.103-.33.07-.344.02-.213-.007-.186-.034-.158-.056-.131-.07-.098-.096-.054-.117-.02-.137.007-.07.028-.089.048-.083.069-.082.103-.062.13-.042.165-.02.33-.02.324-.057.309-.09.289-.117.274-.137.235-.173.206-.179.165-.186.137-.206.076-.207.028-.206-.007-.138-.02-.117-.041-.09-.035-.048M6.183 6.885l-.014.193.028.323.075.29.125.268.186.227.227.2.274.165.269.104-.048.028-.096.062-.138.056-.165.062-.18.04-.206.014-.227-.028-.22-.07-.179-.11-.158-.159-.117-.179-.075-.22-.028-.241.02-.2.056-.206.097-.186.124-.18.178-.15.193-.104" fill="#005EEF"/>
    <path fill-rule="evenodd" clip-rule="evenodd" d="m10.614 8.032.158.028.137.07.118.116.068.138.028.165-.028.159-.068.137-.118.118-.137.068-.158.028-.165-.028-.137-.068-.117-.118-.07-.137-.027-.159.028-.165.069-.138.117-.117.137-.069.165-.028zM33.042 6.885l.13.02.09.049.082.062.048.09.062.082.062.09.069.069.103.056.13.02.187-.02.185-.048.179-.07.179-.068.165-.048.13-.021.097.028.103.062.11.11.11.138.102.172.096.18.097.2.077.199.067.206.056.193.028.18.014.158-.028.172-.07.158-.109.152-.151.137-.186.118-.228.103-.246.09-.281.069-.29.048-.316.028-.33.014-.371-.02-.344-.07-.323-.103-.303-.138-.268-.165-.248-.193-.227-.213-.192-.228-.165-.24-.138-.235-.11-.248-.083-.24-.048-.235-.015-.22.015-.062.02-.034.035-.02.076-.029.117-.014.15-.006.193-.014.22-.017.254-.042.275-.062.296-.096.316-.138.18-.076.164-.02zm-.888 1.218-.069.028-.028.063.02.13.07.138.115.131.153.124.2.124.226.103.255.083.295.048.317.02.247-.013.234-.041.193-.062.158-.076.124-.083.081-.082.028-.09-.034-.062-.09-.034-.15-.014h-.104l-.137-.007-.172-.014-.214-.02-.254-.035-.303-.048-.268-.056-.248-.062-.213-.069-.179-.062-.145-.048-.11-.014M10.614 9.18l.158.028.138.069.116.117.07.137.026.166-.026.165-.07.138-.116.117-.138.069-.158.028-.166-.028-.138-.07-.115-.116-.07-.138-.027-.165.028-.166.069-.137.115-.117.138-.07.166-.027zM31.22 10.327l.15.028.138.062.11.11.062.138.028.151-.028.152-.062.137-.11.11-.137.063-.152.028-.15-.028-.139-.062-.11-.11-.061-.138-.029-.152v-.007l.029-.144.061-.138.11-.11.138-.062.151-.028zM26.483 8.473l.185.158.205.145.201.09.206.056.227.02.151-.013.145-.014.117-.014.096.02.062.042.02.062-.02.124-.062.144-.09.138-.145.152.29.075.275.021.214-.014.22-.034.213-.069.2-.09.199-.13.172-.145.144-.18.138-.22.09-.247.061-.281.014-.234.056.082.069.186.056.193.026.172.015.145-.02.351-.065.301-.103.281-.13.234-.152.207-.186.179-.206.144-.22.118-.234.09-.247.061-.241.035-.255.014-.297-.014-.232-.041-.193-.049-.152-.056-.102-.041-.07-.014-.096.02-.063.07-.06.082-.036.097-.04.09-.034.075-.041.041-.042.021-.103-.048-.103-.097-.096-.144-.09-.179-.075-.213-.056-.242-.036-.247-.012-.269.02-.33.062-.317.11-.303.144-.248M12.733 8.93l.054.02.043.041.034.076.028.104.02.11.042.255.034.13.042.11.068.111.083.09.117.048.144.02.097-.013.103-.042.124-.075.11-.11.109-.166.09-.2.083-.268.048-.276.014-.254-.007-.166-.02-.151-.042-.117-.075-.097-.097-.056-.124-.02-.144.02-.145.048-.13.062-.124.083-.007.007.11-.262.172-.289.214-.255.24-.2.262-.158.289-.117.295-.069.317-.02.268.02.255.069.226.103.193.131.172.172.144.2.124.214.097.248.069.254.04.27.013.28-.04.44V9.3l.04.014.174-.275.19-.247.206-.227.22-.193.233-.159.234-.117.248-.076.254-.028.24.02.221.07.193.096.163.13.14.166.102.186.09.214.062.234.034.24.014.256-.007.151-.014.152-.02.151-.035.145-.041.13-.048.097-.048.062-.048.02-.056-.02-.042-.056-.02-.097-.015-.117-.006-.138-.013-.144-.014-.159-.028-.124-.028-.076-.048-.062-.057-.034-.06-.007-.097.02-.069.077-.075.11-.048.138-.048.158-.028.179-.02.185-.008.186v.131l.014.138.028.124.035.11.056.09.081.062.098.02.137-.02.117-.056.057-.042-.035.173-.069.213-.103.186-.137.172-.16.145-.184.096-.206.069-.229.028-.253-.02-.233-.07-.207-.11-.192-.13-.165-.166-.151-.186-.117-.2-.112-.22-.097-.22-.074-.227-.062-.214-.048-.214-.042-.227-.26.269-.235.227-.24.2-.255.175-.261.152-.29.124-.31.096-.33.056-.378.021-.314-.021-.268-.07-.241-.103-.206-.13-.172-.166-.13-.186-.111-.2-.076-.22-.048-.22-.013-.227.006-.104.013-.124.022-.13.034-.138.048-.124.056-.104.076-.062.09-.028-.003.001zm3.4-.497-.11.028-.104.076-.089.11-.082.137-.062.159-.056.165-.042.172-.041.166-.02.158-.014.124-.007.096.014.117.034.104.062.069.069.02.089-.014.09-.04.102-.077.117-.11.138-.138.172-.179.026-.28V9.02l-.005-.138-.028-.137-.042-.117-.062-.097-.061-.076-.09-.02.002-.002zm1.277.82-.089.021-.096.068-.097.104-.11.151-.124.207.02.261.042.207.048.138.062.09.09.027.082-.028.069-.082.075-.124.062-.152.048-.172.034-.2.014-.2-.006-.123-.015-.09-.034-.062-.034-.035-.041-.006zM15.43 7.47l-.097.028-.075.082-.097.117-.082.165-.083.187-.082.206-.076.227-.076.248-.075.241-.062.248-.062.241-.048.234-.041.207-.028.193-.02.158-.008.117.007.083.028.069.048.056.09.02h.007l.089-.028.09-.09.096-.123.082-.166.082-.192.084-.22.075-.242.076-.248.069-.247.056-.255.056-.241.048-.228.038-.207.028-.186.014-.145.006-.103-.013-.103-.057-.076-.089-.028.002.001zm3.052 1.355-.09.028-.082.083-.09.117-.09.158-.082.186-.082.2-.07.22-.068.227-.056.228-.042.227-.028.213-.006.193.012.18.028.13.056.082.07.029h.009l.09-.029.096-.075.089-.117.083-.159.082-.179.068-.2.07-.22.056-.227.048-.234.034-.241.021-.228.007-.213-.007-.104-.007-.096-.02-.09-.042-.062-.056-.028M27.795 11.474l.15.028.139.062.11.11.062.138.028.152-.028.151-.062.131-.11.11-.139.069-.15.028-.158-.028-.138-.069-.117-.11-.063-.131-.026-.151v-.007l.026-.145.063-.137.117-.104.138-.069.158-.028zM8.229 9.606l-.117.006-.104.022-.082.056-.057.09-.013.13.013.152.042.158.062.165.075.166.11.151.117.131.13.11.152.069.158.028.124-.028.097-.076.075-.103.033-.117.015-.124-.028-.076-.076-.076-.089-.076-.09-.083-.07-.075h.009l-.076-.118-.048-.13-.041-.124-.056-.104-.062-.062-.09-.048-.116-.014h.003zm-1.358.579-.09.028-.082.076-.076.103-.063.13-.047.138-.013.145.02.193.062.186.096.186.123.158.145.138.165.11.172.069.179.028.15-.014.132-.041.124-.048.074-.07.036-.075-.028-.048-.049-.041-.171-.09-.172-.11-.165-.145-.145-.172-.117-.193-.096-.227-.056-.269-.028-.103-.083-.041.003-.002zm1.4-1.004.294.013.174.014.144.02.103.021.062.035.041.069.028.096.02.117.042.131.083.152.095.094.083.069.075.056.069.056.034.062.014.104-.007.069-.034.123-.048.152-.069.179-.09.2-.116.2-.138.213-.165.206-.192.193-.22.18-.241.137-.323.144-.296.104-.254.056-.241.02-.255-.013-.22-.048-.213-.049-.187-.056-.177-.048-.172-.014-.09.014-.137.007-.083-.02-.076-.057-.056-.076-.02-.082.013-.07.029-.068.04-.096.035-.131.056-.338.042-.2.056-.213.075-.22.104-.228.123-.22.172-.22.213-.214.262-.186.289-.165.275-.117.268-.083.248-.048.24-.02.228-.008M39.212 8.032l.11.056.083.11.062.138.04.173.021.2.007.233v.826l-.007.31-.013.309-.02.309-.021.296-.035.28-.034.262-.041.234-.048.207-.056.172-.063.131-.061.083-.062.028-.11-.014-.138-.048-.165-.082-.178-.11-.207-.145-.206-.172-.214-.193-.22-.207-.212-.227-.2-.241-.192-.248-.165-.248-.145-.248-.124-.254-.089-.255-.048-.214h.316l.22-.028.255-.048.268-.069.269-.096.275-.124.274-.151.262-.186.234-.22.213-.256.165-.275M30.414 11.474l.193.02.178.07.152.09.137.137.09.152.069.178.02.186-.02.186-.07.187-.089.151-.137.13-.152.097-.178.069-.193.02-.185-.02-.18-.069-.152-.096-.13-.131-.096-.151-.069-.187-.02-.186.02-.186.07-.178.096-.152.13-.138.152-.09.179-.068.185-.02zM26.661 12.622l.165.028.138.069.117.117.068.138.028.165-.028.158-.069.138-.116.117-.138.069-.165.028-.165-.028-.138-.07-.117-.116-.068-.138-.028-.158.028-.165.069-.138.116-.117.138-.07.165-.027z" fill="#005EEF"/>
    <path fill-rule="evenodd" clip-rule="evenodd" d="m31.267 12.622.172.028.145.076.123.124.076.144.028.172-.028.166-.076.151-.123.117-.145.076-.172.028-.165-.028-.151-.076-.117-.117-.075-.151-.029-.166.029-.172.075-.144.117-.124.151-.076.165-.028zM5.529 12.622l.144.158.207.159.234.11.24.069.261.041.248.014.255-.007.185-.028-.172.193-.227.179-.213.124-.22.069-.2.028-.17-.023-.165-.062-.137-.096-.117-.145-.09-.172-.056-.207-.02-.254.012-.152M10.683 11.474l.192.069.206.096.193.118.2.137.178.172.165.186.13.2.104.227.069.241.02.255-.014.214-.048.2-.069.192-.096.165-.138.145-.158.104-.2.069-.22.027-.233-.027-.22-.076-.186-.118-.165-.165-.124-.186-.089-.227-.063-.241-.02-.262.02-.303.07-.28.096-.276.124-.255.138-.22.138-.18M28.101 12.622l.213.028.186.082.165.118.124.165.081.186.028.213-.028.214-.081.186-.124.165-.165.124-.186.083-.213.028-.22-.028-.192-.083-.165-.124-.124-.165-.083-.186-.028-.213.028-.214.083-.186.124-.165.158-.117.2-.083.22-.028M8.698 12.622l-.028.082-.028.145-.02.158-.007.193.014.241.056.248.096.234.151.234.179.2-.103.062-.165.041-.22.02-.186-.02-.179-.056-.15-.076-.125-.117-.096-.145-.062-.172-.02-.186.02-.206.062-.186.09-.165.116-.145.13-.124.139-.103.13-.076.13-.062.076-.021M30.092 13.769l.165.028.137.069.117.117.07.138.027.158-.028.165-.069.145-.117.117-.137.076-.165.028-.159-.028-.137-.076-.117-.117-.069-.145-.028-.165.028-.158.069-.138.117-.117.137-.069.159-.028zM26.887 13.769l.193.028.172.076.158.117.117.159.076.172.028.193-.028.2-.076.178-.117.159-.158.11-.172.082-.192.028-.193-.028-.179-.082-.15-.11-.118-.159-.075-.179-.028-.2.028-.192.075-.172.117-.159.151-.117.179-.076.192-.028zM5.516 13.77l.138.185.172.186.172.145.177.117.18.069.2.04.199.015.28-.014.311-.041.344-.063.281-.062-.27.22-.321.22-.289.18-.268.124-.255.076-.22.028-.186-.021-.165-.069-.144-.11-.116-.166-.096-.2-.07-.261-.04-.303-.014-.296M31.335 14.916l.165.021.145.069.124.09.09.13.068.152.02.165-.02.159-.069.144-.09.124-.123.096-.145.062-.165.021-.158-.02-.144-.063-.13-.096-.09-.124-.062-.144-.02-.159.02-.165.062-.159.09-.123.13-.09.144-.069.158-.02zM28.96 14.916l.166.028.137.07.116.116.07.145.026.158-.026.166-.07.137-.116.117-.137.07-.165.027-.165-.028-.145-.069-.117-.117-.068-.138-.029-.165.029-.158.068-.145.117-.117.145-.07.165-.027" fill="#005EEF"/>
    <path fill-rule="evenodd" clip-rule="evenodd" d="m30.487 14.916.206.028.193.07.165.096.144.144.097.165.067.193.029.207-.029.206-.067.193-.097.165-.144.145-.165.096-.194.07-.205.027-.206-.028-.192-.069-.165-.096-.145-.145-.096-.165-.069-.193-.028-.206.028-.207.069-.193.096-.165.145-.144.165-.097.192-.069.206-.028z" fill="#005EEF"/>
    <path fill-rule="evenodd" clip-rule="evenodd" d="m31.218 16.064.16.028.137.069.117.103.062.131.028.145-.028.165-.062.137-.117.104-.137.069-.16.028-.15-.028-.13-.063-.11-.11-.07-.137-.027-.159v-.007l.028-.144.068-.131.11-.11.131-.062.15-.028M12.854 13.684l.337.014.358.048.372.062.447.076-.249-.288-.233-.228-.248-.192-.268-.166-.261-.117-.262-.076-.261-.028-.158.014-.145.034-.124.069-.096.09-.028.062-.007-.07-.014-.164-.007-.152.007-.234.034-.193.056-.179.075-.137.112-.117.13-.076.166-.049.192-.02.234.028.241.082.219.124.214.166.207.206.192.228.186.254.157.269.152.269.138.275.04-.007v-.4l.008-.358.014-.317.028-.275.035-.227.061-.186.07-.138.102-.11.116-.056.145-.021.131.028.145.069.158.11.165.151.151.173.124.2.117.206.062.186-.165-.02-.179.027-.165.076-.138.13-.137.166-.138.22-.132.255-.177.358.399-.261.316-.2.322-.172.324-.152.337-.11.33-.069.351-.028.255.02.227.057.213.096.172.117.151.159.11.172.07.213.027.228-.028.206-.062.227-.096.22-.096.16-.043-.16-.095-.192-.138-.152-.165-.13-.206-.097-.24-.062-.282-.04-.309-.015-.385.021-.399.048-.406.083-.371.117v.041l.35.062.303.076.255.083.213.096.172.096.138.11.11.125.069.11.054.124.042.13.014.118.006.124-.02.234-.069.22-.11.186-.124.172-.158.159-.179.137-.186.117-.178.11-.187.097-.143.069.061-.33.029-.394-.007-.193-.036-.206-.054-.207-.09-.206-.136-.214-.165-.213-.207-.22-.288-.235-.076.255-.096.207-.103.185-.104.18-.089.172-.07.172-.02.186.02.11.048.076.07.041.048.007-.007.096-.006.138-.02.158-.021.166-.02.165-.015.151-.013.117-.007.09.007.159.02.123.034.09.062.048.07.048.075.014.048.2.034.227.028.241.028.227.035.2.056.104.061.068.083.035.068.007.139.35.096.194.124.172.138.138.056.056.034.076.02.082-.027.117-.07.104-.103.11-.116.076-.131.056-.117.02-.042-.006-.048-.02-.069-.054-.056-.083-.062-.124-.063-.082-.096-.104-.116-.11-.13-.117-.132-.124-.116-.117-.076-.11-.04-.083.047-.076.02-.137-.027-.152-.062-.151-.097-.165-.11-.166-.11-.172-.096-.179-.062-.2-.028-.2.056-.048.056-.096.02-.117-.02-.173-.048-.186-.07-.213-.067-.227-.07-.22-.047-.214-.02-.18h.06l.07-.02.056-.041.041-.076.014-.117.011-.197.036-.22.041-.22.07-.228.095-.22.117-.2.186-.22-.42-.021-.254.014-.275.04-.289.077-.289.103-.289.138-.28.172-.263.2-.233.227-.206.262-.13.24-.035-.37.02-.317.07-.281.096-.255.124-.214.137-.193.152-.151.15-.124.145-.076.22-.076.234-.034.261-.014M33.107 14.635l.2.09.2.117.164.13.13.138.096.152.084.151.07.159.061.172.056.172.068.179.077.179.096.186.124.192.151.193.117.117.145.124.165.131.177.145.193.158.207.179.206.2.22.227.22.255.213.296.207.33.2.365.192.42.178.476.042-.007.028-.379-.028-.351-.076-.351-.117-.345-.151-.337-.179-.337-.213-.324-.227-.316-.234-.31-.24-.288-.241-.281-.234-.27-.22-.247-.2-.241-.18-.214-.143-.192-.103-.173-.048-.117.275.035.26.048.241.062.221.083.179.096.172.11.158.145.145.172.123.2.131.234.13.268.131.317.138.358.151.407.062.158.075.2.097.22.088.241.097.248.084.248.069.234.048.213.014.186.04.007.111-.317.124-.303.136-.289.16-.296.185-.303.214-.365-.159-.082-.166-.083-.177-.09-.193-.11-.192-.124-.193-.124-.172-.151-.15-.165-.113-.173-.075-.192-.028-.2.028-.241.075-.234.112-.214.138-.206.165-.18.172-.165.177-.137.166-.11.145-.083.116-.048.084-.02.048.02.034.034.02.076.008.11-.014.227-.036.255-.04.269-.048.255-.041.261-.035.228-.013.2.02.192.048.172.076.159.103.117.11.09.117.028.088-.02.113-.077.11-.103.117-.145.124-.165.103-.2.096-.206.076-.228.048-.24.02-.235-.02-.309-.062-.29-.09-.247-.13-.22-.145-.186-.158-.159-.165-.13-.18-.118-.17-.082-.159-.063-.152-.04-.138-.029-.102-.007-.11.014-.124.034-.145.062-.164.07-.193.075-.22.076-.247.076-.281.069-.31.062-.357.034-.399.014-.42-.02-.378-.063-.35-.096-.324-.131-.288-.158-.27-.172-.24-.207-.213-.227-.192-.248-.165-.255-.146-.255-.122-.268-.11-.276-.09-.275-.069-.269-.061-.261-.042-.242-.028-.233-.012-.22-.007-.2.007-.042v-.007l.028.014.041.028.076.049.103.056.13.062.157.056.201.048.24.028.282.014.24-.007.233-.028.249-.028.261-.028.281-.028.323-.007.358.02.316.057.303.09.281.13.253.145.242.186.233.206.22.241.22.255.214.276.213.289.213.309.227.324.145.09.158.096.179.103.192.117.193.124.192.152.193.165.178.186.172.206.138.228.124.261.094.285.061.309.02.351-.02.31-.069.288-.103.281-.137.269-.158.255-.172.255-.186.255-.193.261-.2.262-.192.268-.178.281-.152.296-.13.317-.11.365.192-.048.165-.082.145-.124.137-.138.138-.151.138-.152.137-.151.138-.131.144-.096.152-.07.158-.027.137.02.117.056.083.097.06.123.036.152.013.186-.02.269-.062.289-.096.309-.144.317-.172.296-.22.289-.214.213.007-.144-.01-.15-.02-.158-.04-.159-.057-.144-.09-.13-.104-.104-.13-.07-.159-.027-.192.02-.164.062-.158.097-.124.124-.117.144-.11.166-.103.172-.103.193-.097.185-.082.138-.138-.461-.172-.49-.186-.474-.214-.441-.233-.42-.275-.386-.295-.344-.33-.303-.186-.137-.206-.103-.207-.09-.213-.076-.22-.062-.213-.062-.213-.056-.2-.057-.193-.068-.178-.076-.151-.09-.138-.117-.11-.138-.08-.16-.056-.2-.021-.234.02-.2.042-.213.062-.228.056-.234.041-.24.02-.221-.006-.158-.041-.138-.035-.069zm3.5-1.41.145.007.151.028.145.02.117.007.096-.02.062-.042.013-.062v-.007l-.02-.075-.062-.076-.082-.07-.097-.068-.11-.076-.11-.096-.103-.11-.084-.138-.068-.179-.041-.213-.014-.083-.02-.083-.035-.09-.062-.068-.09-.02-.075.02-.048.069-.022.082-.012.11-.014.104-.014.11-.014.096-.028.076-.041.049-.056.02-.138-.02-.124-.063-.11-.096-.103-.124-.09-.144-.082-.145-.138-.29-.062-.123-.068-.104-.056-.075-.07-.021-.047.007-.049.041-.034.062-.014.11.007.131.013.131.008.152-.008.11-.033.09-.048.055-.09.021-.103-.02-.096-.063-.104-.096-.102-.11-.097-.131-.091-.125-.096-.11-.097-.096-.096-.076-.103-.02-.077.013-.068.041-.02.076.02.096.048.104.068.117.07.11.048.097.02.082-.028.07-.056.047-.096.042-.117.028-.124.02-.138.014-.117.028-.103.029-.069.056-.034.082.02.09.076.056.083.028.124.007.186-.013.205-.028.214-.035.2-.028.158-.014.082.007.083.014.074.035.057.048.02.076-.028.076-.06.082-.097.09-.096.09-.097.09-.075.082-.029.09.021.082.069.048.075.014.138-.02.145-.062.158-.083.178-.096.18-.11.164-.097.179-.083.165-.062.15-.02.057.007.069.013.069.035.048.041.02.049-.028.075-.056.09-.09.104-.096.11-.096.117-.063.124-.026.117.013.069.042.076.082.02.103-.028.11-.076.11-.103.118-.11.13-.118.145-.096.144-.069.158-.028M27.004 19.568l.151.02.13.069.125.083.116.11.11.117.104.11.103.09.109.076.112.02.11-.02.104-.057.089-.082.062-.124.02-.138-.02-.172-.056-.152-.09-.137-.117-.11-.13-.11-.152-.104-.173-.09-.17-.096-.172-.09-.165-.103-.165-.103-.152-.124-.131-.138-.11-.158-.082-.172-.056-.214-.02-.227.013-.207.034-.213.062-.241.097-.262.123-.296.138-.262.028.138.076.165.103.131.11.104.13.096.152.076.144.062.151.069.145.062.138.076.13.082.116.104.09.13.076.159.056.192.014.235-.014.227-.02.261-.014.262v.145l.014.137.028.11.056.097.082.062.11.02.124-.02.09-.056.055-.09.029-.11.006-.123-.006-.165-.02-.173-.021-.158-.009-.13.022-.173.048-.138.068-.103.096-.062.091-.048.096-.028.097-.007.178.02.18.063.178.082.184.097.201.096.22.083.248.061.24.021-.048.131-.089.124-.12.112-.145.09-.165.082-.172.069-.185.069-.186.069-.18.068-.17.076-.159.097-.124.103-.103.124-.07.151-.02.18.02.172.056.137.097.104.117.082.115.056.132.035.138.02h.268l.11-.027.083-.063.041-.089.014-.13-.028-.372.014-.049.028-.028.048-.014.082.021.117.049.145.082.165.104.178.123.185.138.187.152.172.151.158.145.138.144.103.131.062.103.028.083-.028.056-.062.076-.11.062-.145.062-.172.062-.192.062-.2.056-.206.048-.2.042-.185.028-.179.028-.151.014-.118.006-.075-.014-.04-.034-.021-.041-.009-.042.015-.056.048-.076.057-.103.048-.103.048-.097.013-.096-.02-.07-.056-.055-.103-.049-.152-.028-.185-.02h-.386l-.13.013-.096.049-.07.068-.02.11.028.145.062.145.103.158.11.151.11.145.09.137.06.138.029.124-.014.117-.041.097-.07.089-.11.056-.144.034-.192.014-.145-.014-.144-.034-.151-.069-.138-.076-.13-.11-.097-.124-.069-.144-.028-.159.02-.151.057-.158.074-.152.09-.137.076-.145.056-.124.02-.11-.013-.062-.041-.062-.076-.048-.112-.02-.102.013-.096.056-.085.076-.088.096-.09.11-.102.131-.11.13-.125.138-.144.138-.165.138-.186.117-.227.11-.254.09-.29.075-.267.035.096-.09.13-.145.11-.165.083-.193.056-.227.021-.269-.014-.2-.02-.192-.02-.207-.014-.227.013-.179.042-.151.061-.11.097-.076.103-.057.117-.013" fill="#005EEF"/>
    <path fill-rule="evenodd" clip-rule="evenodd" d="m13.017 22.976.014.006.014.028.007.062.012.104.036.103.068.097.089.082.118.049.144.02.164-.02.139-.076.096-.097.069-.13.02-.152-.028-.227-.068-.235-.11-.262-.152-.275-.171-.303-.185-.317-.207-.33-.213-.351-.213-.365-.207-.385-.185-.406-.172-.42-.152-.441-.11-.462-.07-.468-.027-.489-.042-.007-.075.186-.076.214-.056.241-.048.281-.012.317.028.385.068.4.11.393.131.393.138.386.138.393.13.386.11.376.068.365.028.366-.02.2-.07.192-.096.172-.138.145-.158.11-.185.069-.193.028-.186-.02-.165-.057-.121-.069-.103-.103-.07-.11-.054-.117-.034-.124-.009-.104.015-.13.033-.11.036-.076.028-.021.014.007.013.034.02.056.042.069.056.056.09.049.117.013.15-.02.118-.062.096-.09.056-.138.035-.165.006-.193-.02-.358-.062-.35-.083-.331-.309-.971-.082-.337-.062-.344-.02-.372.006-.268.028-.27-.034-.013-.158.227-.103.241-.07.262-.04.275-.014.269-.007.268v1.377l-.019.288-.048.248-.082.213-.097.172-.124.151-.144.104-.15.084-.173.048-.179.014-.144-.014-.151-.056-.124-.076-.117-.11-.083-.138-.061-.172-.02-.193.005-.062.015-.069.02-.082.034-.056.027-.021.035.02.056.049.07.069.082.069.11.056.144.02.186-.02.145-.069.103-.11.09-.159.055-.192.035-.242.02-.28.014-.324v-.365l.014-.338.033-.337.07-.337.09-.344.13-.351.158-.345.2-.33.233-.337.281-.33.322-.317.373-.303.35-.248-.11.234-.103.324-.062.323-.035.302-.007.255.028.38.068.377.11.372.138.371.172.358.193.358.213.358.227.345.234.337.227.323.22.325.213.31.186.295.172.281.138.275.109.269.07.255.026.234-.013.193-.048.185-.075.186-.097.166-.13.158-.159.124-.185.096-.213.07-.234.02-.234-.02-.206-.07-.172-.096-.146-.131-.102-.151-.082-.152-.057-.172-.012-.165.02-.159.048-.144.062-.117.062-.097.069-.056.041-.02M16.516 20.862l.212.165.221.158.214.11.192.07.165.027.145-.02.103-.063.062-.089.02-.117-.028-.103-.076-.11-.112-.097-.144-.103-.164-.117-.179-.11-.2-.117-.192-.117-.2-.138-.178-.138-.165-.151-.145-.165-.104-.173-.067-.185-.029-.2.029-.158.067-.152.113-.151.144-.145.17-.137.193-.145.201-.138.206-.137.2-.152.192-.145.172-.158.145-.165.124-.186.068-.193.029-.207-.014-.151-.036-.193-.06-.193-.057-.11.193.11.234.173.213.2.179.2.144.213.11.206.07.214.02.2-.02.234-.063.22-.096.2-.103.172-.124.172-.138.165-.124.152-.11.151-.103.152-.062.151-.02.158.02.166.056.137.09.131.11.11.117.11.13.104.131.11.117.124.11.13.076.145.056.165.02.193-.028.2-.075.213-.11.22-.131.221-.146.234-.144.248-.13.24-.11.255-.075.255-.028.269.02.255.069.234.103.227.145.186.178.165.213.145.241.096.158.035-.233.041-.337.028-.345-.02-.33-.071-.329-.104-.309-.144-.29-.174-.275-.206-.247-.234-.207-.255-.165-.275-.13-.303-.083-.31-.028-.323.02-.324.068-.296.105-.289.144-.255.165-.248.186-.206M32.174 18.358l.062.021.069.056.075.09.076.103.075.104.07.103.068.09.062.069.062.02.089-.02.096-.07.09-.082.096-.096.09-.104.089-.082.082-.056.07-.021.04.014.029.034.006.09-.028.302-.062.31-.075.316-.062.317-.028.296.007.144.02.159.041.138.062.123.083.097.11.076.138.02.13-.028.117-.075.097-.118.096-.151.062-.165.041-.2.014-.2-.007-.303-.028-.275-.02-.234-.029-.2-.006-.151.014-.07.02-.027.034-.014.061.028.077.062.075.09.076.096.069.103.075.09.09.068.082.021.117-.028.124-.062.124-.09.117-.096.11-.082.09-.056.067-.029.022.021.014.028-.014.09-.048.124-.062.13-.062.131-.062.13-.048.111-.014.103.034.057.076.04.103.035.124.035.13.028.125.028.103.034.062.028.02.028-.013.042-.063.034-.096.035-.123.034-.152.028-.152.028-.164.028-.151.035-.145.041-.13.048-.206.104-.18.117-.124.13-.082.152-.028.158.02.124.07.096.103.062.13.035.158.02.18.007.322-.02.303-.057.268-.076.241-.09.2-.089.17-.076.132-.056.09-.02.034.013.014.034-.02.056-.049.076-.069.104-.084.11-.082.117-.082.117-.048.103-.02.09.02.082.075.076.088.069.113.076.13.069.125.069.103.061.089.049.06.048.009.028-.035.028-.103.014-.165-.014-.192-.014-.192-.013-.097.007-.09.02-.061.048-.034.063-.014.096v.11l-.007.124v.13l-.014.118-.02.09-.028.056-.035.02-.028-.013-.048-.07-.056-.096-.069-.116-.082-.152-.097-.165-.118-.172-.115-.166-.131-.158-.151-.152-.165-.13-.186-.097-.192-.068-.22-.021-.11.02-.09.07-.056.11-.02.137.02.214.069.206.103.207.138.206.158.186.172.166.178.151.186.131.13.076.132.069.13.069.103.062.076.048.02.034-.013.021-.062.02-.09.022-.117.006-.123.007-.124.014-.125.02-.097.035-.081.056-.02.083.013.158.02.172.035.18.02.165.013.137-.006.062-.02.056-.041.014-.048-.028-.077-.062-.082-.096-.096-.117-.09-.117-.096-.117-.082-.097-.083-.076-.083-.028-.089.028-.103.07-.11.082-.11.096-.104.083-.082.056-.069.028-.034-.02-.014-.042.02-.124.057-.165.082-.193.09-.213.089-.234.083-.242.056-.261.02-.255v-.117l-.006-.137-.022-.152-.02-.158-.041-.138-.056-.13-.083-.11-.096-.07-.124-.028-.145.029-.152.089-.136.13-.131.166-.124.193-.096.213-.083.214-.02.103-.021.138-.007.158-.014.172-.006.172-.014.18-.014.157-.02.138-.035.11-.034.07-.034.02-.041-.02-.042-.063-.035-.103-.026-.117-.035-.124-.035-.117-.04-.11-.07-.076-.089-.028-.11.02-.117.049-.13.069-.131.082-.117.069-.103.048-.069.021-.02-.007-.014-.02.014-.063.048-.096.061-.117.07-.124.068-.124.062-.11.048-.082.014-.07-.034-.068-.062-.056-.11-.041-.117-.035-.13-.028-.132-.035-.117-.028-.104-.034-.054-.034-.013-.029.013-.034.07-.028.11-.041.137-.035.158-.028.158-.028.193-.041.206-.062.206-.076.2-.097.206-.11.186-.13.158-.138.138-.145.117-.172.068-.173.02-.192-.02-.234-.063-.193-.088-.186-.13-.158-.138-.145-.158-.124-.165-.117-.165-.11-.165-.103-.158-.097-.124-.076-.124-.076-.113-.068-.088-.056-.056-.063-.02-.04.02-.035.056-.021.083-.02.1-.01.097-.006h.2l.116-.014.097-.028.068-.062.021-.09-.028-.55v-.09l.014-.075.014-.041.02-.014" fill="#005EEF"/>
    <path fill-rule="evenodd" clip-rule="evenodd" d="m36.178 23.274.304.02.261.07.227.11.193.15.014-.013.013-.014-.152-.186-.11-.2-.068-.227-.02-.227.013-.179.048-.179.069-.165.096-.145.131-.124.151-.082.179-.062.2-.021.192.028.186.069.172.11.158.158.137.186.117.22.097.248.075.269.048.275.014.303-.02.413-.076.406-.11.413-.165.407-.2.385-.24.379-.29.351-.288.29-.02-.228-.049-.241-.082-.2-.117-.179-.124-.145-.144-.124-.159-.116-.172-.097-.178-.082-.172-.076-.172-.076-.165-.083-.158-.082-.138-.083-.125-.104-.11-.123-.068-.131-.048-.165-.02-.186.02-.22.069-.207.103-.165.138-.138.157-.096.187-.07.19-.02M29.488 23.94l-.062.027-.028.056-.007.083-.007.09-.007.103-.028.13-.034.146-.02.123v.007l.028.131.068.117.11.076.138.028.124-.02.103-.07.076-.082.047-.124.015-.13-.015-.131-.04-.131-.062-.13-.09-.11-.09-.097-.109-.07-.11-.02v-.003zm-.834-.99.318.077.337.13.296.159.268.179.24.213.2.227.157.248.132.248.09.269.056.268.02.269-.015.227-.047.213-.075.207-.096.179-.138.165-.158.131-.18.096-.212.07-.235.02-.241-.02-.225-.063-.2-.103-.171-.138-.138-.179-.11-.206-.069-.241-.02-.269.025-.238.062-.241.089-.248.103-.248.09-.248.061-.248.027-.254-.013-.18-.048-.172-.084-.179-.097-.123" fill="#005EEF"/>
    <path fill-rule="evenodd" clip-rule="evenodd" d="m30.862 24.095.317.042.323.096.275.138.234.165.192.2.13.22.09.255.028.255-.02.213-.07.2-.095.172-.14.151-.163.11-.2.07-.213.027-.2-.02-.185-.062-.145-.09-.123-.124-.09-.137-.056-.173-.02-.179.028-.227.061-.227.068-.22.063-.22.028-.228-.014-.145-.04-.144-.063-.117M10.687 22.948l.186.034.165.076.15.104.124.13.083.152.083.185.213-.123.24-.062h.193l.172.048.159.083.15.117.11.151.089.172.05.193-.008.22-.068.207-.11.172-.159.151-.192.11-.227.07-.138.013.041.13.028.097.02.117v.207l-.04.179-.083.158-.117.145-.144.11-.172.083-.193.048-.233.007-.2-.048-.172-.09-.151-.137-.103-.166-.083-.22-.144.069-.151.048-.16.028h-.198l-.186-.048-.165-.083-.15-.11-.113-.151L9 25.359l-.048-.193v-.207l.048-.192.09-.166.123-.144.15-.11.153-.083.172-.041.151-.029-.056-.158-.02-.124.006-.24.062-.207.096-.18.152-.157.178-.104.22-.062.207-.013.002-.001zm.176 1.233-.165.041-.139.097-.101.13-.057.145-.006.172.048.166.096.13.116.104.16.062.164.007.165-.049.138-.096.103-.13.056-.145.007-.173v-.006l-.042-.152-.096-.138-.132-.103-.143-.056-.172-.007M26.144 25.243l.234.02.248.07.22.096.185.124.152.158.103.165.075.18.02.185-.02.165-.062.152-.084.123-.13.097-.144.069-.172.02-.158-.02-.13-.07-.118-.089-.082-.117-.056-.145-.02-.144.02-.22.048-.214.02-.206-.014-.152-.056-.144-.082-.104M16.125 23.948l.103.021.076.041.075.07.076.089.09.096.26.227.281.193.29.138.308.096.344.062.358.034.39.014.311-.014.29-.048.254-.069.22-.09.178-.11.138-.123.088-.131.028-.145-.02-.137-.069-.118-.084-.096-.116-.09-.13-.096-.138-.082-.145-.09-.139-.09-.13-.11-.116-.124-.076-.137-.061-.166-.02-.185.02-.152.046-.186.091-.213.124-.227.13-.2.062.275.104.269.144.234.186.186.233.158.276.13.302.125.241.137.212.138.166.158.138.158.096.166.075.172.049.186.034.179.014.186.007.192-.014.248-.034.241-.057.255-.081.248-.113.248-.134.235-.157.22-.193.214-.22.193-.254.165-.276.145-.316.124-.344.09-.378.055-.413.021-.393-.028-.371-.076-.351-.124-.323-.165-.303-.193-.275-.227-.248-.255-.213-.275-.172-.29-.137-.302-.113-.31-.057-.304-.02-.31.006-.158.014-.151.034-.138.041-.124.048-.09.07-.061.082-.02v-.002zm4.737.937-.075.021-.083.069-.103.09-.13.096-.167.096-.157.069-.13.056-.11.048-.097.062-.069.07-.056.089-.028.124-.007.151-.015.186-.013.186-.013.151.006.11.029.09.082.056.117.02.158-.02.165-.069.172-.11.165-.138.158-.165.138-.186.13-.213.097-.207.062-.22.02-.22-.02-.131-.056-.09-.076-.056-.096-.014" fill="#005EEF"/>
    <path fill-rule="evenodd" clip-rule="evenodd" d="m6.24 16.004.07.014.04.034.021.049.007.069-.007.124-.014.172-.013.22-.015.276-.006.323.006.207.022.172.028.117.034.09.048.062.056.034.042.014.056.007h.007l.075-.028.068-.076.056-.117.056-.144.042-.173.04-.2.042-.213.042-.227.037-.236.042-.227.048-.227.056-.214.06-.2.07-.172.075-.137.09-.11.097-.063.11-.028.083.02.056.05.041.082.02.096.007.124-.013.281-.048.303-.062.324-.062.316-.062.303-.051.294-.015.241.015.165.033.11.077.07.082.013.07-.034.068-.076.062-.13.069-.16.068-.192.076-.22.075-.236.082-.248.082-.255.084-.255.09-.248.082-.234.09-.22.089-.193.088-.151.09-.124.083-.07.083-.027.09.02.06.049.042.069.033.096.009.096-.014.166-.043.2-.054.233-.075.255-.083.269-.09.28-.096.282-.089.275-.082.262-.076.24-.056.221-.042.186-.013.145.006.076.042.061.069.029.089-.029.096-.075.103-.11.104-.138.116-.172.11-.2.104-.207.11-.22.192-.44.083-.214.075-.2.057-.179.075-.206.083-.152.082-.117.083-.069.083-.02.069.02.061.048.048.083.042.124.014.158-.014.22-.048.256-.076.296-.096.323-.11.345-.132.358-.144.365-.158.372-.158.358-.165.344-.158.323-.296.579-.159.306-.153.316-.143.31-.139.308-.109.297-.089.275-.056.269-.02.227.006.158.02.165.042.166.069.165.11.179.144.179.158.151-.24-.014-.248-.034-.22-.048-.192-.07-.159-.089-.144-.13-.124-.18-.143-.259-.163.358-.097.289-.056.275-.02.248.02.227.041.214.076.192.096.186.124.166.124.158.143.151.153.145.15.138.152.137.151.145.145.138.13.151.117.152.09.151.075.172.056.186.02.193-.013.22-.056.228-.09.255-.125.247-.033-.048-.09-.082-.11-.083-.137-.096-.151-.09-.158-.11-.172-.13-.179-.139-.179-.158-.18-.179-.17-.206-.152-.228-.15-.248-.122-.282-.112-.317-.082-.344-.05-.38-.021-.426.022-.42.069-.385.096-.38.13-.357.152-.337.172-.31.186-.302.177-.281.187-.269.186-.255.172-.24.158-.235.13-.22.097-.2.069-.192.02-.193-.028-.193-.075-.179-.152-.151-.164-.152-.124-.145-.103-.13-.09-.104-.082-.082-.11-.056-.14-.021-.108.028-.104.083-.089.11-.069.151-.034.18-.007.185.042.207.096.192.081.138.07.104.042.103.02.103-.014.11-.04.145-.063.152-.082.172-.103.158-.104.165-.116.145-.124.13-.124.104-.117.062-.11.02-.103-.027-.097-.07-.103-.117-.083-.165-.082-.213-.069-.255-.062-.296-.048-.324-.041-.371-.02-.408-.006-.44.006-.338.014-.337.028-.33.042-.317.047-.29.057-.28.061-.255.07-.234.075-.193.082-.151.076-.117.083-.07.089-.027M13.36 25.243l.268.014.247.04.234.07.213.117.214.151.2.207.185.261.11.186.096.207.076.22.069.22.062.214.048.206.056.18.047.157.056.131.069.076.13.076.145.035.138.013.349-.014.254.028.241.07.213.11.2.137.178.165.159.18.124.192.103.179.075.186.047.165.015.137-.02.166-.07.13-.096.118-.124.076-.165.056-.178.028-.206.014-.29-.029-.295-.075-.28-.11-.262-.152-.234-.158-.192-.186-.11-.152-.104-.192-.082-.228-.07-.268-.068-.296-.056-.317-.062-.248-.096-.24-.153-.228-.191-.207-.234-.185-.281-.173-.33-.137-.378-.117-.262-.07-.206-.068-.165-.062-.117-.069-.096-.056-.062-.062-.028-.062-.02-.069-.007-.068.02-.131.062-.117.102-.11.132-.083.144-.076.165-.056.165-.034.179-.014zm3.053 3.228-.103.014-.096.034-.076.069-.062.09-.02.117.028.103.082.117.11.11.138.11.165.104.165.076.172.048.165.02.117-.013.09-.035.047-.056.042-.062.006-.069-.028-.137-.082-.138-.11-.13-.138-.118-.153-.103-.163-.083-.152-.048-.144-.02M26.42 24.723l-.178.007-.179.034-.165.062-.171.11-.18.172.131.028.097.042.082.048.075.076.048.09.022.117-.022.103-.04.09-.076.075-.096.056-.124.057-.138.048-.152.041-.164.049-.172.048-.165.062-.172.069-.172.082-.151.117-.138.124-.124.159-.11.186-.076.22-.048.261-.02.296.02.276.07.261.11.262.15.261.193.235.22.22.261.2.296.178.323.138.35.11.378.07.407.02.309-.014.28-.034.242-.056.198-.076.173-.096.124-.104.076-.117.028-.124-.022-.09-.054-.056-.083-.028-.09-.014-.075-.014-.076-.013-.034-.035-.02-.048.028-.076.056-.103.048-.117.028-.117-.006-.069-.042-.069-.048-.056-.082-.02-.11.013-.124.048-.152.062-.178.076-.214.069-.248.062-.274.048-.323.014-.241-.014-.227-.041-.22-.076-.2-.09-.172-.11-.15-.137-.111-.152-.069-.165-.028-.172.02-.097.034-.048.063-.02.081.013.097.028.104.014.075-.028.029-.069.006-.13v-.076l.007-.097.014-.103.028-.104.041-.082.062-.062.09-.02.055.013.07.041.088.07.104.082.124.096.15.117.187.104.206.11.24.096.276.083.316.069.365.048.4.014.227-.007.26-.014.282-.028.289-.041.295-.049.275-.075.248-.083.227-.103.138-.104-.014.241-.048.281-.07.29-.096.295-.123.29-.152.275-.171.275-.208.255-.24.241-.26.22-.297.193-.309.172-.35.138-.385.097-.4.068-.44.021-.453-.02-.43-.067-.399-.11-.378-.145-.337-.179-.317-.206-.288-.234-.255-.262-.234-.289-.192-.303-.165-.309-.145-.33-.108-.344-.076-.344-.05-.345-.013-.344.02-.413.07-.393.102-.386.145-.378.186-.352.213-.337.247-.317.281-.289.318-.261.337-.22.358-.193.393-.159.412-.11.426-.069.448-.028.248.014.22.034.2.048.171.07.124.082.074.09.029.096-.021.068-.048.057-.076.034-.11.034-.117.021-.124.028-.117.029-.11.034-.103.062-.075.076-.042.124.02.006.235.042.185.056.131.062.096.069.062.076.034.076.006.068-.02.124-.047.09-.09.069-.103.048-.117.028-.124.007-.302-.023-.331-.022zM29.917 29.832l.288.014.269.028.234.056.2.07.164.088.124.097.069.117.028.13v.31l-.015.137-.04.145-.076.104-.22.151-.268.124-.289.09-.316.048-.338.02-.26-.013-.242-.028-.227-.057-.192-.062-.151-.075-.124-.083-.07-.082-.027-.09v-.626l.028-.076.061-.09.123-.103.16-.096.213-.097.254-.075.296-.057.344-.02M35.448 25.78l-.104.014-.096.04-.075.077-.07.103-.047.124-.014.172.02.2.062.165.097.145.103.103.11.09.103.056.11.056.13.041.152.014.186-.007.172-.034.144-.057.11-.082.076-.117.026-.152-.026-.165-.076-.172-.124-.158-.152-.138-.178-.13-.207-.097-.212-.069-.22-.02v-.002zm-.413-.536.247.014.248.041.248.07.24.096.227.123.22.145.2.186.179.213.15.234.125.276.096.303.062.33.02.366-.02.296-.069.302-.096.303-.138.31-.158.302-.186.29-.193.289-.213.28-.227.262-.227.255-.22.227-.22.207-.206.186-.193.158-.171.124-.138.09-.117.056-.076.02-.125-.028-.122-.062-.118-.103-.11-.124-.068-.13-.056-.145-.02-.124.007-.057.028-.068.041-.062.09-.062.13-.07.366-.171.344-.214.295-.227.262-.248.227-.255.192-.262.151-.261.103-.248.07-.22.02-.207-.015-.103-.047-.097-.083-.068-.124-.021-.056.034-.069.07-.082.11-.103.137-.117.172-.117.186-.138.2-.151.213-.158.207-.165.2-.179.185-.178.173-.194.13-.185.11-.2.07-.199.027-.22-.02-.22-.057-.214-.082-.193-.104-.177-.11-.158-.13-.131-.138-.096-.131-.062-.11-.02-.104.026-.096.063-.11.103-.124.144-.131.164-.138.18-.144.2-.145.205-.151.2-.152.2-.158.178-.159.165-.151.145-.158.11-.159.069-.144.028-.152-.007-.124-.034-.082-.042-.062-.062-.035-.061-.013h-.062l-.069.02-.103.076-.117.104-.144.13-.159.159-.178.172-.193.186-.2.2-.213.192-.213.186-.22.172-.22.152-.206.13-.213.104-.206.069-.187.02-.097-.028-.088-.061-.076-.11-.068-.125-.049-.15-.034-.152-.014-.152.014-.082.035-.076.061-.076.097-.056.144-.062.186-.049.358-.096.316-.117.268-.13.241-.159.206-.158.179-.165.165-.166.144-.172.138-.172.138-.158.137-.158.145-.145.158-.13.172-.11.206-.097.227-.07.262-.047.309-.014" fill="#005EEF"/>
    <path fill-rule="evenodd" clip-rule="evenodd" d="m17.175 30.428.076.014.062.007.083.02.11.015.13.006.166.014h.206l.234-.02.192-.049.17-.076.145-.117.118-.124.103-.137.097-.159.082-.165.076-.165.076-.166.082-.165.082-.144.09-.138.117-.124.13-.103.144-.076.186-.049.207-.02.103.013.13.035.145.056.137.076.125.096.109.145.104-.165.048-.124.014-.131-.02-.172-.05-.152-.054-.151-.02-.145.028-.144.061-.11.104-.07.13-.027.13.028.103.061.077.104.056.117.034.172.158-.117.151-.034.138.02.117.063.076.096.054.117.021.124-.021.138-.061.117-.117.11.158.11.083.117.028.145-.028.144-.07.11-.11.076-.144.029-.103-.029-.096-.056-.103-.076-.113-.056-.122-.028-.124.014-.124.048-.083.083.097.296.026.261-.026.255-.076.248-.124.227-.158.22-.206.2-.241.186-.255.151-.288.138-.31.11-.324.076-.329.056-.344.014-.33-.014-.282-.048-.26-.076-.227-.096-.187-.11-.164-.117-.13-.13-.11-.139-.076-.123-.056-.124-.029-.118-.012-.088.013-.062.035-.034.075-.014h.075M10.052 26.872l-.062.33-.034.366v.358l.028.344.069.344.096.324.13.303.166.296.2.262.22.234.254.206.28.186.31.138.337.103.371.07.394.02.337-.02.301-.063.256-.096.227-.145.172-.172.145-.22.096-.242.056-.275.02-.303-.02-.289-.048-.29-.082-.268-.117-.261-.152-.248-.178-.214-.207-.185-.24-.166-.263-.117-.294-.068-.317-.029-.254.021-.227.062-.194.097-.157.13-.124.159-.069.179-.028.2.02.261.07.234.11.22.144.18.165.15.2.125.206.089.234.056.227.021.213-.014.192-.048.152-.069.11-.103.082-.131.02-.151-.006-.09-.042-.096-.137.048-.172.014-.228-.022-.2-.049-.185-.082-.144-.097-.117-.123-.07-.124-.027-.131.02-.131.048-.11.09-.076.11-.056.13-.021.228.02.213.07.185.103.18.131.15.158.124.18.11.178.076.2.048.186.014.186-.02.22-.063.213-.096.186-.13.172-.165.145-.2.104-.234.068-.261.02-.358-.02-.309-.068-.295-.104-.248-.13-.227-.159-.2-.186-.173-.2-.136-.213-.11-.22-.09-.234-.061-.228-.034-.213-.014-.213.02-.27.07-.254.102-.234.138-.2.172-.179.2-.145.213-.123.24-.09.248-.056.261-.021.366.028.35.069.33.117.31.165.288.2.262.24.24.282.2.309.172.344.144.379.104.406.061.427.02.454-.007.193-.02.193-.041.2-.056.206-.076.2-.097.2-.116.186-.144.186-.172.165-.2.144-.228.131-.267.104-.296.082-.323.048-.371.021-.427-.02-.399-.07-.378-.11-.357-.137-.324-.172-.309-.2-.28-.22-.255-.248-.227-.262-.2-.269-.158-.268-.144-.281-.11-.281-.083-.276-.048-.261-.014-.255.028-.351.07-.31.101-.288.139-.241.143-.22.166-.18.171-.137.16-.097.123-.041M28.448 31.62l.056.014.09.034.123.041.158.048.2.042.24.034.29.014.426-.02.399-.057.357-.09.31-.11.28-.116.249-.131.2-.124.17-.124.125-.096.11.013.124.042.117.068.11.104.097.144.081.165.05.207.02.255-.028.268-.083.282-.137.28-.172.27-.234.274-.276.255-.316.248-.351.22-.379.2-.425.18-.447.137-.481.11-.495.069-.53.02-.275-.028-.24-.062-.2-.11-.172-.13-.125-.159-.097-.179-.053-.192-.021-.193.02-.324.07-.303.096-.289.122-.275.139-.234.138-.214.144-.179.117-.124.117-.096.096-.056.097-.028-.002.005zm2.862.49h-.007l-.041.014-.07.041-.102.057-.131.062-.172.069-.206.061-.248.056-.28.042-.33.014h-.193l.02.179.007.151-.028.324-.07.323-.102.352.344-.021.294-.049.256-.061.22-.09.2-.096.184-.117.214-.159.159-.172.123-.179.076-.172.041-.165.014-.159-.008-.13-.026-.083-.042-.056-.048-.028-.048-.007" fill="#005EEF"/>
    <path fill-rule="evenodd" clip-rule="evenodd" d="m13.535 32.834.151.028.22.014.214.006.393-.02.35-.07.303-.103.262-.151.213-.18.172-.212.124-.255.069-.29.028-.309-.028-.337.11.056.165.097.178.137.193.18.192.213.171.255.16.28.13.324.09.358.04.056.083.057.104.04.13.042.151.028.159.028.15.014h.303l.179-.028.165-.048.165-.07.158-.11.13-.13.118-.165.082-.207.048-.227.454-.062.433-.11.4-.151.365-.193.314-.237.281-.262.234-.289.2-.323.137-.338.09-.337.206.083.22.11.206.13.206.131.18.145.157.138.117.13.09.117.254-.061.261-.042.296-.013.33.013.35.049.386.082.44.117.02-.11.021-.09.034-.082.042-.062.075-.041.11-.014.112.014.075.041.062.062.034.076.029.096.019.104.021.103.029.104.034.09.056.068.083.062.089.069.09.076.056.09.026.11-.02.123-.056.097-.075.056-.097.034-.082.014-.165-.02-.056.04-.048.083-.042.11-.041.13-.048.16-.048.164-.056.187-.062.178-.069.186-.082.18-.097.157-.11.145-.138.124-.144.09-.172.062-.193.02-.268-.028-.261-.069-.255-.11-.234-.144-.227-.186-.2-.214-.185-.24-.144-.255-.13-.281-.097-.18-.117-.123-.139-.097-.15-.028-.103.007-.103.014-.09.035-.103.068-.103.083-.117.124-.261.261-.289.242-.323.227-.35.206-.386.18-.413.144-.433.11-.46.07-.482.027-.262-.006-.227-.007-.185-.014-.145-.007h-.15l-.015.041.029.062.068.062.11.083.165.076.2.076.248.062.309.04.343.015.42-.014.385-.041.35-.07.31-.082.275-.103.248-.11.22-.124.2-.117.164-.131.15-.124.132-.11.117-.104.103-.082.09-.062.068-.041.069-.014h.048l.056.014.069.034.076.056.056.103.165.331.2.281.212.234.227.2.255.165.255.13.254.097.248.069.254.048.234.028.213.007h.193l.144-.007.11-.006.09-.007.069-.014.048-.007.048-.007.048-.006h.062l.088.013.056.028.028.042.02.056v.041l-.027.097-.062.096-.117.096-.158.09-.207.09-.248.068-.281.062-.33.035-.372.013-.275-.02-.234-.062-.206-.097-.172-.117-.144-.138-.097-.158-.082-.186-.323.186-.344.172-.372.152-.406.13-.412.104-.42.069-.433.02-.489-.014-.447-.04-.399-.063-.371-.076-.33-.096-.303-.11-.268-.124-.248-.124-.22-.138-.206-.124-.192-.137-.174-.124-.17-.124-.165-.117-.165-.097-.158-.082-.138-.049-.151-.028-.153-.02-.164-.014-.172-.007-.185-.014-.194-.02-.198-.035-.214-.056-.22-.083-.233-.11-.241-.144-.248-.18-.27-.233-.232-.248v-.005zm11.533-1.248-.179.028-.15.083-.118.117-.082.151-.028.18.028.178.082.152.117.117.151.083.18.028.171-.028.151-.083.117-.117.083-.152.028-.179-.028-.179-.083-.151-.117-.117-.15-.083-.173-.028z" fill="#005EEF"/>
</svg>
