<svg width="35" height="32" viewBox="0 0 35 32" fill="none" xmlns="http://www.w3.org/2000/svg">
    <path d="m5.14 10.597 2.604-.043c.427-.005.766-.384.745-.837L8.384 7.47c-.02-.436-.364-.771-.775-.758l-2.499.082c-.41.014-.735.367-.735.798V9.8c0 .445.344.803.764.798zM5.21 16.018l2.604-.043c.428-.008.766-.385.745-.84l-.104-2.245c-.02-.432-.364-.77-.776-.757l-2.498.082c-.41.013-.736.368-.736.8v2.203c0 .446.344.805.765.8zM7.813 17.552l-2.5.082c-.41.013-.735.369-.735.798v2.207c0 .442.344.803.765.799l2.604-.043c.428-.009.766-.387.745-.837l-.104-2.25c-.02-.43-.364-.769-.775-.756zM16.19 13.23c-.248-.205-.597-.23-.499-.647.07-.304.505-.43.575-.734.033-.139.065-.286.028-.42-.05-.192-.223-.322-.38-.417a3.318 3.318 0 0 0-.95-.395c-1.476-.36-3.054-.617-4.549-.365-.387.065-.524.59-.211.842.218.178.423.373.617.573.305.321.578.672.823 1.046.643.777 1.044 1.766 1.354 2.734.058.182.132.386.302.456.145.06.311 0 .44-.092.409-.286.59-.811.75-1.302.022-.065.051-.143.116-.165.063-.026.133.014.19.053.556.377 1.034.88 1.39 1.466.136.226.305.5.559.49a.53.53 0 0 0 .27-.108c.319-.217.508-.603.488-1.002-.05-.929-.69-1.502-1.312-2.014z" fill="#fff"/>
    <path d="m32.288 25.08-9.852.149-10.343.162-8.918.141c-.71.009-1.12-.598-1.12-1.35V4.642c.041-.993.3-1.2 1.064-1.35l28.005-.879c.872-.026 1.602.69 1.639 1.61l.78 19.654c.03.756-.538 1.389-1.255 1.402zm1.828-22.518c-.042-1.06-.882-1.886-1.885-1.855-.086.004-.172.009-.26.009l-.737.026c-.384.009-.769.022-1.154.035-.5.018-1.003.031-1.505.049-.598.022-1.197.04-1.796.057l-2.023.066c-.729.022-1.458.048-2.186.07-.764.027-1.527.048-2.29.075-.777.026-1.552.048-2.329.075-.767.026-1.535.048-2.304.074-.74.022-1.479.049-2.218.07l-2.069.067c-.619.022-1.238.04-1.857.061-.527.018-1.054.031-1.582.049l-1.245.04-4.766.118c-.045-.005-.088-.004-.134-.004C.787 1.673 0 2.531 0 3.577v21.717c0 1.081.836 1.952 1.859 1.934l8.48-.088c.677-.013 1.143.713.886 1.377l-.504 1.297a.437.437 0 0 1-.407.285H7.937c-.224 0-.405.194-.405.431l-.488 1.038c0 .238.18.431.403.431l18.316-.088c.441 0 .726-.497.52-.91l-.39-.65a.581.581 0 0 0-.52-.335H21.51c-.314 0-.525-.334-.408-.642l.252-.48c.006-.004.013-.008.018-.017.198-.325.388-.655.576-.99.107-.188.001-.43-.204-.47l-1.762-.33c-.085-.017-.075-.149.01-.149l13.204-.154c1.031-.013 1.846-.927 1.802-2.014l-.882-22.209z" fill="#fff"/>
</svg>
