<svg width="37" height="35" viewBox="0 0 37 35" fill="none" xmlns="http://www.w3.org/2000/svg">
    <path d="M27.358 16.338a7.21 7.21 0 0 1-1.86 3.902l-.007.003c-1.221 1.314-2.913 2.148-4.772 2.21-4.348.149-7.755-3.782-7.125-8.22.486-3.403 3.3-6.002 6.632-6.115 4.347-.148 7.754 3.782 7.132 8.22zm8.945 9.619c-.736-1.358-1.047-1.757-2.663-3.05-.455-.36-1.002-.56-1.548-.718-.235-.067-.47-.129-.713-.191-.038-.012-.083-.024-.129-.035-.03-.009-.068-.018-.106-.027a17.48 17.48 0 0 1-.357-.095l-.007-.002a2.096 2.096 0 0 1-.327-.12.727.727 0 0 1-.19-.13l-.022-.02c-.03-.029-.06-.058-.091-.085-.288-.282-.57-.57-.857-.854-.198-.198-.403-.397-.6-.595a.272.272 0 0 1-.083-.181c-.008-.008-.008-.013-.008-.02a.28.28 0 0 1 .046-.154c.19-.342.356-.697.508-1.064.076-.184.144-.37.205-.56.318-.946.5-1.962.508-3.026.053-4.846-3.498-9.01-8.164-9.576-5.546-.673-10.41 3.822-10.357 9.587.038 4.819 3.627 8.89 8.278 9.396 3.027.33 5.842-.881 7.754-2.992a.265.265 0 0 1 .38-.021c.258.236.523.461.774.716.144.149.288.3.432.438.107.098.22.186.311.293.03.037.053.074.076.114.023.04.046.085.06.128.016.033.031.067.046.102.008.014.008.028.016.043.068.139.121.282.182.423.015.029.023.057.038.086.136.332.265.666.432.982.584 1.12 1.563 1.958 2.512 2.762.53.447 1.077.902 1.783 1.017.242.04.5.029.736-.052 1.054-.36 1.63-1.618 1.145-2.52z" fill="#fff"/>
    <path d="M25.988 24.573a10.412 10.412 0 0 1-6.528 1.422 10.523 10.523 0 0 1-4.6-1.64 1.038 1.038 0 0 0-.618-.162l-7.642.389-.015.001a.416.416 0 0 1-.407-.26.441.441 0 0 1 .34-.618l6.301-.752a.137.137 0 0 0 .083-.23c-.527-.554-1.047-1.135-1.4-1.824-.324-.625-.723-.509-.723-.509l-4.262.278h-.015a.417.417 0 0 1-.414-.251.44.44 0 0 1 .331-.625l4.036-.537c.098-.014.158-.123.12-.22a11.272 11.272 0 0 1-.61-2.316.234.234 0 0 0-.248-.198l-3.576.327-.008.002a.415.415 0 0 1-.421-.242.44.44 0 0 1 .316-.632l3.516-.565a.337.337 0 0 0 .278-.35v-.005c-.007-.8.076-1.593.226-2.365a.195.195 0 0 0-.203-.242l-4.156.382-.015.001a.422.422 0 0 1-.422-.24.448.448 0 0 1 .324-.633l4.646-.748a.44.44 0 0 0 .338-.282c.332-.886.776-1.726 1.318-2.5.075-.109-.008-.259-.136-.245l-6.859.63-.015.002a.421.421 0 0 1-.421-.242.45.45 0 0 1 .316-.633l8.455-1.36c.218-.034.43-.125.602-.27 2.252-1.886 5.158-2.766 8.057-2.413.798.096 1.573.282 2.311.553.437.159.874-.234.79-.702a144.937 144.937 0 0 0-.489-2.527.935.935 0 0 0-1.001-.758L.848 2.682c-.565.055-.957.612-.821 1.182.49 2.108 1.52 7.257 2.07 14.967.475 6.584.603 12.81.625 15.217.008.563.482 1 1.032.948l22.685-2.224a.955.955 0 0 0 .851-.961c0-1.216-.022-3.602-.12-6.55-.015-.613-.663-.995-1.182-.688z" fill="#fff"/>
    <path d="M20.458 9.682c-.06 0-.12 0-.18.003-1.7.058-3.25.971-4.212 2.345a.183.183 0 0 0 .173.29l5.07-.796a1.04 1.04 0 0 1 1.188.838c.105.582-.279 1.133-.843 1.222-.022.003-.037.006-.06.007l-.007.002-6.146.54a.387.387 0 0 0-.346.325v.003a5.856 5.856 0 0 0 .113 2.204c.083.324.391.53.707.481l6.003-.94a1.04 1.04 0 0 1 1.188.836c.105.583-.278 1.133-.842 1.223l-.068.007-.008.001-5.363.472s-.654.189-.195.498c1.263.849 2.52 1.697 4.039 1.644 1.414-.048 2.73-.66 3.723-1.724 0-.002.008-.004.008-.007a5.609 5.609 0 0 0 1.452-3.044 5.733 5.733 0 0 0-1.324-4.558 5.377 5.377 0 0 0-4.07-1.872z" fill="#fff"/>
</svg>
