<svg width="37" height="27" viewBox="0 0 37 27" fill="none" xmlns="http://www.w3.org/2000/svg">
    <path d="M7.702 7.908a3.491 3.491 0 0 0 3.49-3.49 3.492 3.492 0 1 0-3.49 3.49zM29.193 20.797c.012-.022.026-.047.042-.072.205-.327.07-.528.455-.511.712.036 2.022.074 2.709-.022.727-.105.908-.31.974-.594.17-.143.345-.696.414-.918L36.7 8a1.418 1.418 0 0 0-.472-1.471 1.471 1.471 0 0 0-.954-.316l-15.38.195a1.512 1.512 0 0 0-1.419 1.034l-3.01 9.081c-.064.2.042.418.24.49l.415.15a.394.394 0 0 0 .506-.244l2.946-8.806a.54.54 0 0 1 .51-.377l13.82-.165a.683.683 0 0 1 .663.88c-.738 2.45-2.754 9.136-2.897 9.65-.465.701-1.22.65-1.22.65l-7.067-.023a.487.487 0 0 0-.426.723l.154.278c.086.154.25.25.426.25h.445c.11 0 .188.107.158.212-.11.385-.258.742-.503 1.058-.635.82-1.848.74-1.818.71.113-.119.26-.226.331-.372.383-.778.001-1.74-.8-2.075-.448-.187-.867-.18-.867-.18-3.704.037-7.478-1.89-10.003-4.505-.37-.383-.732-.773-1.085-1.174a2.61 2.61 0 0 1-.43-.696 4.457 4.457 0 0 0-.08-.179c-.852-1.809-3.667-5.443-6.177-2.666-.342.379-.597.83-.77 1.314-1.75 4.894-1.228 8.13-.557 14.698.051.42 6.256-.71 7.409-1.757l.048-.044.046-.044c1.15-1.14.797-3.382.687-4.836.156.104.251.162.251.162l.014.017v-.02a16.256 16.256 0 0 0 6.373 2.568h-2.273a.691.691 0 0 0-.693.693v.852c0 .383.31.693.694.693 3.593 0 7.194.075 10.788 0 1.007-.019 4.97.022 5.941-.041.896-.058 1.772-.082 2.562-.566.346-.22.638-.492.812-.8.306-.534-.102-1.2-.719-1.196-1.291.002-3.53.013-4.57.016-.168.003-.244-.206-.117-.316.228-.2.422-.437.561-.71z" fill="#fff"/>
</svg>
