<svg width="38" height="36" viewBox="0 0 38 36" fill="none" xmlns="http://www.w3.org/2000/svg">
    <path d="M26.987 32.73c-.317.61-.98.937-1.62 1.081-1.013.23-2.046.308-3.069.442-1.018.13-2.027.298-3.05.399-.529.048-1.072.077-1.624.077-.274.005-.553-.01-.831-.02-.14-.014-.279-.023-.418-.033l-.053-.005c-.02-.005-.029-.005-.043-.005-.03-.004-.048-.01-.072-.014a.618.618 0 0 1-.106-.029.166.166 0 0 1-.058-.033c-.019-.01-.043-.034-.077-.063a13.582 13.582 0 0 0-.115-.13l-.062-.081-.034-.044-.01-.01-.004-.009c-.087.068-.015.015-.03.024l.02-.014a.069.069 0 0 0 .01-.014s-.005 0-.005-.005c-.005 0-.005-.015-.01-.02l-.01-.019-.014-.033c-.01-.02-.019-.039-.024-.068-.01-.029-.019-.048-.029-.081a3.457 3.457 0 0 1-.086-.38 11.556 11.556 0 0 1-.11-.879c-.01-.159-.025-.317-.039-.476l-.043-.494c-.068-.654-.159-1.317-.236-1.96a16.636 16.636 0 0 1-.115-1.418v-.028c.01 0 .014-.005.024-.01.149-.043.298-.091.447-.14a31.3 31.3 0 0 1 .893-.259 57.74 57.74 0 0 1 3.464-.826c1.12-.235 2.186-.432 3.19-.61.5-.087.985-.168 1.45-.245.116-.024.231-.038.347-.058l.057-.01c.015 0 .03-.004.044-.004.033 0 .062 0 .09.005.063.004.126.019.183.043.03.014.058.029.082.048a.105.105 0 0 1 .038.024l.072.058c.111.072.221.197.313.34.096.145.182.308.254.471.15.327.26.668.36.985.193.644.798 2.325.865 3.603a1.7 1.7 0 0 1-.206.927zm.48-1.705c-.067-.408-.264-2.306-.398-3.002a7.707 7.707 0 0 0-.294-1.13 3.831 3.831 0 0 0-.273-.62 2.1 2.1 0 0 0-.5-.628l-.043-.039c-.01-.005.057.048.029.024l-.005-.005-.015-.01-.019-.018c-.029-.03-.062-.049-.091-.073a1.555 1.555 0 0 0-.663-.293 2.091 2.091 0 0 0-.25-.028c-.043 0-.082 0-.125.004l-.062.005-.058.005c-.115.01-.235.024-.35.034-.476.048-.971.11-1.485.173-1.018.13-2.109.288-3.257.494-1.139.202-2.34.447-3.574.769a27.278 27.278 0 0 0-1.518.442c-.063.02-.125.043-.202.082-.13.062-.303.173-.442.36a1.08 1.08 0 0 0-.144.288 1.124 1.124 0 0 0-.058.255c-.02.149-.014.264-.01.346.005.173.01.34.025.514.062.994.23 1.974.331 2.964.086.821.11 1.686.365 2.479.144.504.495.965.932 1.263.106.072.226.13.341.168.12.044.23.068.332.087.052.005.1.014.149.019 1.623.144 3.247-.067 4.842-.365a80.046 80.046 0 0 0 2.373-.49c.74-.159 1.509-.274 2.23-.5.196-.057.384-.134.557-.226.172-.086.331-.182.475-.293.149-.105.279-.225.39-.35.23-.25.388-.529.475-.798.091-.269.1-.514.091-.72-.02-.4-.038-.793-.1-1.187zM35.015 14.712c1.927-1.485 2.808-4.258 2.137-6.634-1.105-3.917-5.242-4.55-8.294-4.74l.01.049c1.796.53 5.057 2.55 5.198 4.419.102 1.333-.239 2.083-1.003 2.93a.738.738 0 0 0-.16.74l.311.914c.064.18-.17.312-.292.17l-.968-1.128a.336.336 0 0 1-.117-.088c-.234-.282-.58-.7-.788-.988a.305.305 0 0 0-.53.083l-1.894 5.417c-.263.769.34 1.562 1.148 1.504 1.806-.132 3.612-.307 5.408-.521a.299.299 0 0 0 .223-.448 9.496 9.496 0 0 0-.525-.818.64.64 0 0 1 .136-.861zM7.55 26.622a.302.302 0 0 0-.527.085c-.113.338-.315.837-.452 1.18a.519.519 0 0 1-.08.119l-.498 1.176c-.09.216-.414.146-.41-.09l.014-.757a.726.726 0 0 0-.362-.645c-.998-.579-1.553-1.186-1.863-2.494-.433-1.82 2.051-4.743 3.604-5.792l-.01-.052C4.12 20.468.375 22.326.517 26.396c.08 2.466 1.769 4.837 4.056 5.67.31.113.489.456.39.772-.094.31-.198.663-.25.946a.297.297 0 0 0 .349.352 107.66 107.66 0 0 0 5.307-1.152 1.13 1.13 0 0 0 .636-1.779L7.55 26.622zM14.397 20.79c-.34-.46-.35-1.18.004-1.668.23-.311.508-.503.873-.494.167.005.263.192.177.336-.014.024-.024.048-.038.072-.14.33-.048.599.249.795.21.14.407.144.59.039a.62.62 0 0 0 .234-.274c.33-.68 2.051-3.92 5.444-4.912.154-.048.24.163.106.24-1.102.642-2.9 2.022-4.122 4.692l-.455.886c-.714 1.29-2.229 1.433-3.062.288zm9.45-7.61a1.196 1.196 0 0 0-.944-.293c-3.244.426-7.495 1.145-10.615 2.147-.158.053-.33.11-.427.25-.09.138-.09.31-.086.474.048 1.5.283 2.454.455 4.495.048.532.154 1.745.49 2.162.354.44.531.637 1.097.69 3.043.278 6.22-.609 9.407-1.093.935-.144 1.903-.652 2.277-1.52.216-.503.182-1.082.067-1.62-.297-1.418-.551-4.835-1.72-5.693zM12.352 6.663c.225-.301.498-.492.851-.492.177 0 .273.2.187.354-.01.019-.02.033-.029.052-.143.33-.048.598.249.794.21.143.406.148.588.038a.617.617 0 0 0 .24-.268c.334-.693 2.108-4.026 5.609-4.963.129-.034.196.143.08.21-1.085.598-2.988 1.98-4.26 4.768l-.46.89c-.716 1.29-2.227 1.43-3.064.286-.335-.459-.345-1.181.01-1.669zm-1.822.708c.043.54.153 1.745.488 2.166.359.445.53.636 1.095.689 3.046.282 6.226-.607 9.411-1.09.933-.144 1.899-.656 2.277-1.521.215-.507.181-1.08.067-1.617-.302-1.42-.555-4.839-1.722-5.7a1.18 1.18 0 0 0-.937-.287c-3.247.421-7.503 1.143-10.621 2.143-.158.052-.33.114-.426.253-.091.134-.09.31-.086.474.048 1.496.282 2.453.454 4.49z" fill="#fff"/>
</svg>
